<?xml version="1.0" encoding="utf-8"?>
<!-- Generator: Adobe Illustrator 24.3.0, SVG Export Plug-In . SVG Version: 6.00 Build 0)  -->
<svg version="1.1" id="Capa_1" xmlns="http://www.w3.org/2000/svg" xmlns:xlink="http://www.w3.org/1999/xlink" x="0px" y="0px"
	 viewBox="0 0 50 50" style="enable-background:new 0 0 50 50;" xml:space="preserve">
<style type="text/css">
	.st0{fill:#FFFFFF;}
</style>
<g>
	<path class="st0" d="M41.8,25c0,9.2-7.4,16.5-16.5,16.5S8.8,34.2,8.8,25S16.2,8.5,25.3,8.5c2.1,0,4.2,0.4,6,1.2l2.3-2.2
		c-2.6-1.2-5.3-2-8.3-2C14.7,5.5,6,14.2,6,24.8s8.5,19.5,19.3,19.5c10.6,0,19.3-8.7,19.3-19.4c0-2.7-0.6-5.2-1.5-7.6l-2.2,2.2
		C41.5,21.2,41.8,23.1,41.8,25z"/>
	<path class="st0" d="M41.4,6.7c-1-1-2.9-1-3.8,0L22.2,22v6.4h6.5l15.3-15.3c1.1-1.1,1.1-2.7,0-3.8L41.4,6.7z M27.6,25.6h-2.4v-2.4
		l10.7-10.7l2.4,2.4L27.6,25.6z M40.3,12.8l-2.4-2.4l1.5-1.5l2.4,2.4L40.3,12.8z"/>
</g>
</svg>
