<?xml version="1.0" encoding="utf-8"?>
<!-- Generator: Adobe Illustrator 24.3.0, SVG Export Plug-In . SVG Version: 6.00 Build 0)  -->
<svg version="1.1" id="Capa_1" xmlns="http://www.w3.org/2000/svg" xmlns:xlink="http://www.w3.org/1999/xlink" x="0px" y="0px"
	 viewBox="0 0 24 24" style="enable-background:new 0 0 24 24;" xml:space="preserve">
<style type="text/css">
	.st0{fill:#993399;}
</style>
<g>
	<g>
		<g>
			<path class="st0" d="M23.8,11.5c-0.2-0.3-5.3-7.2-11.8-7.2S0.4,11.2,0.2,11.5c-0.2,0.3-0.2,0.7,0,0.9c0.2,0.3,5.3,7.2,11.8,7.2
				s11.6-6.9,11.8-7.2C24.1,12.2,24.1,11.8,23.8,11.5z M12,18.1c-4.8,0-9-4.6-10.2-6.1C3,10.5,7.2,5.9,12,5.9c4.8,0,9,4.6,10.2,6.1
				C21,13.5,16.8,18.1,12,18.1z"/>
		</g>
	</g>
	<g>
		<g>
			<path class="st0" d="M12,7.3c-2.6,0-4.7,2.1-4.7,4.7s2.1,4.7,4.7,4.7s4.7-2.1,4.7-4.7S14.6,7.3,12,7.3z M12,15.2
				c-1.7,0-3.2-1.4-3.2-3.2s1.4-3.2,3.2-3.2s3.2,1.4,3.2,3.2C15.2,13.7,13.7,15.2,12,15.2z"/>
		</g>
	</g>
</g>
</svg>
