<svg id="Capa_1" data-name="Capa 1" xmlns="http://www.w3.org/2000/svg" viewBox="0 0 50 50"><defs><style>.cls-1{fill:#fff;}</style></defs><path class="cls-1" d="M32.66,17.34a11,11,0,1,0-11.89,18v-3.9a2.12,2.12,0,0,1,2.12-2.12h3.53a2.12,2.12,0,0,1,2.12,2.12V35.5a11,11,0,0,0,4.12-18.16Zm-8,10.48a2.89,2.89,0,0,1-2.82-3.15c0-1.66,1.65-4.6,2-5.18L24.65,18l.85,1.46c.33.58,2,3.52,2,5.18A2.83,2.83,0,0,1,24.65,27.82Z"/><path class="cls-1" d="M34,16A13,13,0,1,0,15.72,34.28a12.8,12.8,0,0,0,5,3.11v2.37h1.94V31.43a.18.18,0,0,1,.18-.18h3.53a.18.18,0,0,1,.18.18v8.33h1.94V37.54A12.94,12.94,0,0,0,34,16ZM32.66,32.91a11,11,0,0,1-4.12,2.59V31.43a2.12,2.12,0,0,0-2.12-2.12H22.89a2.12,2.12,0,0,0-2.12,2.12v3.9a11,11,0,1,1,11.89-2.42Z"/><path class="cls-1" d="M23.77,24.67c0,.89.46,1.21.88,1.21.22,0,.89,0,.89-1.21a8.22,8.22,0,0,0-.89-2.59A8.4,8.4,0,0,0,23.77,24.67Z"/><path class="cls-1" d="M24.65,18l-.84,1.46c-.33.58-2,3.52-2,5.18a2.89,2.89,0,0,0,2.82,3.15,2.83,2.83,0,0,0,2.83-3.15c0-1.66-1.65-4.6-2-5.18Zm0,7.85c-.42,0-.88-.32-.88-1.21a8.4,8.4,0,0,1,.88-2.59,8.22,8.22,0,0,1,.89,2.59C25.54,25.88,24.87,25.88,24.65,25.88Z"/></svg>