<?xml version="1.0" encoding="utf-8"?>
<!-- Generator: Adobe Illustrator 24.3.0, SVG Export Plug-In . SVG Version: 6.00 Build 0)  -->
<svg version="1.1" id="Capa_1" xmlns="http://www.w3.org/2000/svg" xmlns:xlink="http://www.w3.org/1999/xlink" x="0px" y="0px"
	 viewBox="0 0 50 50" style="enable-background:new 0 0 50 50;" xml:space="preserve">
<style type="text/css">
	.st0{fill:#FFFFFF;}
</style>
<g>
	<path class="st0" d="M38.5,11.5C31,4,18.6,4,11.1,11.5s-7.5,19.9,0,27.4c2.1,2.1,4.8,3.8,7.5,4.6v3.6h1.5h1.5v-2.9v-3v-6.8
		c0-0.1,0.1-0.3,0.3-0.3h5.2c0.2,0,0.3,0.2,0.3,0.3v6.9v3v2.7h1.5h1.5v-3.3c3.1-0.9,5.9-2.6,8.2-5C46.1,31.3,46.1,19,38.5,11.5z
		 M36.6,36.9c-1.8,1.8-3.9,3-6.2,3.9v-6.2c0-1.8-1.5-3.1-3.2-3.1H22c-1.8,0-3.2,1.5-3.2,3.1v5.8c-2.1-0.8-3.9-2.1-5.6-3.6
		c-6.5-6.4-6.5-16.9,0-23.4c3.2-3.2,7.5-4.8,11.7-4.8s8.4,1.7,11.7,4.8C43,19.9,43,30.4,36.6,36.9z"/>
	<path class="st0" d="M24.6,14.5l-1.2,2.2c-0.4,0.9-3,5.2-3,7.8c0,3.1,2.1,4.8,4.2,4.8s4.2-1.5,4.2-4.8c0-2.6-2.6-6.9-3-7.8
		L24.6,14.5z M24.6,26.3c-0.6,0-1.4-0.4-1.4-1.8c0-0.8,0.6-2.4,1.4-3.9c0.8,1.5,1.4,3.1,1.4,3.9C25.8,26.3,24.8,26.3,24.6,26.3z"/>
</g>
</svg>
