<svg id="Capa_1" data-name="Capa 1" xmlns="http://www.w3.org/2000/svg" viewBox="0 0 173.62 158.78"><defs><style>.cls-1{fill:#939;}</style></defs><title>12</title><path class="cls-1" d="M36.54,21A34.44,34.44,0,0,1,50,30.15c5.25,5.49,9.8,12.77,13.52,21.65,2.74,6.55,5.15,16.14,7.17,28.5,1.67,10.23,3,22.25,4.1,35.74.94,12.06,1.43,23.07,1.68,30.17.26,7.65.31,12.52.31,12.57l20-.09V12.94h-20V33.33a82,82,0,0,0-12.34-17C57.89,9.44,50.62,4.64,42.86,2.05a35.67,35.67,0,0,0-22.22-.53l6.09,19.05A15.92,15.92,0,0,1,36.54,21Z"/></svg>