<svg id="Capa_1" data-name="Capa 1" xmlns="http://www.w3.org/2000/svg" viewBox="0 0 173.62 158.78"><defs><style>.cls-1{fill:#939;}</style></defs><title>16</title><path class="cls-1" d="M12.51,62.2c7,8,16.38,14.65,28,19.77l8.06-18.31c-8.9-3.92-16-8.83-21-14.59a30.06,30.06,0,0,1-7.31-14.38,15.38,15.38,0,0,1,1.23-9.91,8.83,8.83,0,0,1,5.21-4.21,15.92,15.92,0,0,1,9.81.46A34.44,34.44,0,0,1,50,30.15c5.25,5.49,9.8,12.77,13.52,21.65,2.74,6.55,5.15,16.14,7.17,28.5,1.67,10.23,3,22.25,4.1,35.74.94,12.06,1.43,23.07,1.68,30.17.26,7.65.31,12.52.31,12.57l20-.09V12.94h-20V33.33a82,82,0,0,0-12.34-17C57.89,9.44,50.62,4.64,42.86,2.05a35.7,35.7,0,0,0-22.23-.53A29,29,0,0,0,4,15.1,35.29,35.29,0,0,0,.57,38,49.83,49.83,0,0,0,12.51,62.2Z"/></svg>