<svg id="Capa_1" data-name="Capa 1" xmlns="http://www.w3.org/2000/svg" viewBox="0 0 173.62 158.78"><defs><style>.cls-1{fill:#939;}</style></defs><title>21</title><path class="cls-1" d="M12.51,62.2c7,8,16.38,14.65,28,19.77A134.62,134.62,0,0,0,72.3,91.13c1,7.59,1.82,15.92,2.52,24.91.94,12.06,1.43,23.07,1.68,30.17.26,7.65.31,12.52.31,12.57l20-.09V91.83A139.06,139.06,0,0,0,133.1,82c11.62-5.12,21-11.77,28-19.77a50,50,0,0,0,12-24.18,35.3,35.3,0,0,0-3.46-22.92l-17.5,9.68a15.38,15.38,0,0,1,1.24,9.91A30,30,0,0,1,146,49.07c-5,5.76-12.06,10.67-21,14.59A115.47,115.47,0,0,1,96.81,71.6V12.94h-20V33.33a82,82,0,0,0-12.34-17C57.89,9.44,50.62,4.64,42.86,2.05a35.7,35.7,0,0,0-22.23-.53A29,29,0,0,0,4,15.1,35.29,35.29,0,0,0,.57,38,49.83,49.83,0,0,0,12.51,62.2Zm9-37.42a8.83,8.83,0,0,1,5.21-4.21,13,13,0,0,1,3.9-.57,18.73,18.73,0,0,1,5.91,1A34.44,34.44,0,0,1,50,30.15c5.25,5.49,9.8,12.77,13.52,21.65a104.3,104.3,0,0,1,5.28,18.3,106.6,106.6,0,0,1-20.26-6.44c-8.9-3.92-16-8.83-21-14.59a30.06,30.06,0,0,1-7.31-14.38A15.38,15.38,0,0,1,21.52,24.78Z"/></svg>