<svg id="Capa_1" data-name="Capa 1" xmlns="http://www.w3.org/2000/svg" viewBox="0 0 173.62 158.78"><defs><style>.cls-1{fill:#939;}</style></defs><title>29</title><path class="cls-1" d="M72.33,91.14c4.09,31.91,4.47,67.12,4.48,67.64l10-.05,10,.05c0-.52.38-35.72,4.48-67.64,43.75-7.32,60.69-27.39,67-39.4,6.59-12.48,7.06-26.17,1.27-36.64C164,5,153.35-.61,141.06.05,124,1,108,13.2,96.81,33.35V12.94h-20V33.35C65.6,13.2,49.59,1,32.56.05,20.27-.62,9.6,5,4,15.1-1.77,25.57-1.29,39.26,5.29,51.74,11.63,63.75,28.57,83.82,72.33,91.14ZM110.07,51.8c9.48-22.66,22.79-31.27,32.07-31.78l.84,0c2.73,0,6.88.74,9.11,4.78,1.94,3.51,2.58,10-1.46,17.63-3.46,6.56-14.42,20.86-45.89,27.71A104.19,104.19,0,0,1,110.07,51.8Zm-88.55-27c2.23-4,6.38-4.78,9.12-4.78l.83,0c9.29.51,22.59,9.12,32.08,31.78a105.11,105.11,0,0,1,5.32,18.32C37.4,63.27,26.45,49,23,42.41,19,34.76,19.58,28.29,21.52,24.78Z"/></svg>