<svg id="Capa_1" data-name="Capa 1" xmlns="http://www.w3.org/2000/svg" viewBox="0 0 173.62 158.78"><defs><style>.cls-1{fill:#939;}</style></defs><title>32</title><path class="cls-1" d="M153,1.53a35.63,35.63,0,0,0-22.23.52c-7.75,2.59-15,7.39-21.61,14.27-7,7.27-12.85,16.61-17.52,27.76a106.79,106.79,0,0,0-4.81,15,106.79,106.79,0,0,0-4.81-15C77.33,32.93,71.43,23.59,64.47,16.32,57.89,9.44,50.62,4.64,42.86,2.05a35.67,35.67,0,0,0-22.22-.53A29,29,0,0,0,4,15.1,35.29,35.29,0,0,0,.57,38,49.83,49.83,0,0,0,12.51,62.2c7,8,16.38,14.65,28,19.77A134.62,134.62,0,0,0,72.3,91.13c1,7.59,1.82,15.92,2.52,24.91.94,12.06,1.43,23.07,1.68,30.17.26,7.65.31,12.52.31,12.57l13.31-.06,6.69.06c0-.05,0-4.92.31-12.57.25-7.1.74-18.11,1.67-30.17.7-9,1.55-17.32,2.53-24.91A134.4,134.4,0,0,0,133.1,82c11.63-5.12,21.05-11.77,28-19.77a50,50,0,0,0,12-24.18A35.36,35.36,0,0,0,169.6,15.1,29,29,0,0,0,153,1.53ZM48.57,63.67c-8.9-3.93-16-8.84-21-14.6a30.06,30.06,0,0,1-7.31-14.38,15.38,15.38,0,0,1,1.23-9.91,8.82,8.82,0,0,1,5.22-4.21A12.84,12.84,0,0,1,30.63,20a18.73,18.73,0,0,1,5.91,1A34.34,34.34,0,0,1,50,30.15c5.25,5.49,9.8,12.77,13.52,21.65a104.3,104.3,0,0,1,5.28,18.3A107.32,107.32,0,0,1,48.57,63.67Zm104.76-29A30,30,0,0,1,146,49.07c-5,5.76-12.06,10.67-21,14.6a107.09,107.09,0,0,1-20.26,6.43,103.35,103.35,0,0,1,5.29-18.3c3.71-8.88,8.26-16.16,13.52-21.65A34.27,34.27,0,0,1,137.08,21,18.68,18.68,0,0,1,143,20a12.88,12.88,0,0,1,3.89.57,8.8,8.8,0,0,1,5.21,4.21A15.38,15.38,0,0,1,153.33,34.69Z"/></svg>