<svg id="Capa_1" data-name="Capa 1" xmlns="http://www.w3.org/2000/svg" viewBox="0 0 173.62 158.78"><defs><style>.cls-1{fill:#939;}</style></defs><title>38</title><path class="cls-1" d="M153,1.53a35.63,35.63,0,0,0-22.23.52c-7.75,2.59-15,7.39-21.61,14.27-7,7.27-12.85,16.61-17.52,27.76-3,7.1-5.56,16.68-7.69,28.49C70.32,71,58.43,68,48.57,63.67c-8.9-3.93-16-8.84-21-14.6a30.06,30.06,0,0,1-7.31-14.38,15.38,15.38,0,0,1,1.23-9.91,8.82,8.82,0,0,1,5.22-4.21,15.89,15.89,0,0,1,9.8.46A34.34,34.34,0,0,1,50,30.15L64.47,16.32C57.89,9.44,50.61,4.64,42.86,2.05a35.67,35.67,0,0,0-22.22-.53A29,29,0,0,0,4,15.1,35.29,35.29,0,0,0,.57,38,49.83,49.83,0,0,0,12.51,62.2c7,8,16.38,14.65,28,19.77S65.66,90.54,81,92.37q-1.24,10.34-2.17,22.12c-1,12.42-1.47,23.73-1.72,31-.27,7.93-.32,12.87-.32,13.08l20,.18c0-.05,0-4.92.31-12.57.25-7.1.74-18.11,1.67-30.17.7-9,1.55-17.32,2.53-24.91A134.4,134.4,0,0,0,133.1,82c11.63-5.12,21.05-11.77,28-19.77a50,50,0,0,0,12-24.18A35.36,35.36,0,0,0,169.6,15.1,29,29,0,0,0,153,1.53Zm.35,33.16A30,30,0,0,1,146,49.07c-5,5.76-12.06,10.67-21,14.6a107.09,107.09,0,0,1-20.26,6.43,103.35,103.35,0,0,1,5.29-18.3c3.71-8.88,8.26-16.16,13.52-21.65A34.27,34.27,0,0,1,137.08,21,18.68,18.68,0,0,1,143,20a12.88,12.88,0,0,1,3.89.57,8.8,8.8,0,0,1,5.21,4.21A15.38,15.38,0,0,1,153.33,34.69Z"/></svg>