<svg id="Capa_1" data-name="Capa 1" xmlns="http://www.w3.org/2000/svg" viewBox="0 0 173.62 158.78"><defs><style>.cls-1{fill:#939;}</style></defs><title>45</title><path class="cls-1" d="M153,1.53a35.63,35.63,0,0,0-22.23.52c-7.75,2.59-15,7.39-21.61,14.27-7,7.27-12.85,16.61-17.52,27.76-3.35,8-6.19,19.09-8.46,33-1.77,10.79-3.21,23.38-4.31,37.42-1,12.42-1.47,23.73-1.72,31-.27,7.93-.32,12.87-.32,13.08l20,.18c0-.05,0-4.92.31-12.57.25-7.1.74-18.11,1.67-30.17.7-9,1.55-17.32,2.53-24.91A134.4,134.4,0,0,0,133.1,82c11.63-5.12,21.05-11.77,28-19.77a50,50,0,0,0,12-24.18A35.36,35.36,0,0,0,169.6,15.1,29,29,0,0,0,153,1.53Zm.35,33.16A30,30,0,0,1,146,49.07c-5,5.76-12.06,10.67-21,14.6a107.09,107.09,0,0,1-20.26,6.43,103.35,103.35,0,0,1,5.29-18.3c3.71-8.88,8.26-16.16,13.52-21.65A34.27,34.27,0,0,1,137.08,21,18.68,18.68,0,0,1,143,20a12.88,12.88,0,0,1,3.89.57,8.8,8.8,0,0,1,5.21,4.21A15.38,15.38,0,0,1,153.33,34.69Z"/></svg>