<svg id="Capa_1" data-name="Capa 1" xmlns="http://www.w3.org/2000/svg" viewBox="0 0 173.62 158.78"><defs><style>.cls-1{fill:#939;}</style></defs><title>49</title><path class="cls-1" d="M153,1.53a35.63,35.63,0,0,0-22.23.52c-7.75,2.59-15,7.39-21.61,14.27-7,7.27-12.85,16.61-17.52,27.76-3.35,8-6.19,19.09-8.46,33-1.77,10.79-3.21,23.38-4.31,37.42-1,12.42-1.47,23.73-1.72,31-.27,7.93-.32,12.87-.32,13.08l20,.18c0-.05,0-4.92.31-12.57.25-7.1.74-18.11,1.67-30.17,1-13.49,2.43-25.51,4.1-35.74,2-12.36,4.44-21.95,7.18-28.5,3.71-8.88,8.26-16.16,13.52-21.65A34.27,34.27,0,0,1,137.08,21a15.89,15.89,0,0,1,9.8-.46,8.8,8.8,0,0,1,5.21,4.21L169.6,15.1A29,29,0,0,0,153,1.53Z"/></svg>