<svg id="Capa_1" data-name="Capa 1" xmlns="http://www.w3.org/2000/svg" viewBox="0 0 50 50"><defs><style>.cls-1{fill:#330033;}</style></defs><title>Mesa de trabajo 2 copia 2</title><path class="cls-1" d="M46.05,13.81l-7.91-11A4.69,4.69,0,0,0,31.6,1.78L11.19,16.5A4.69,4.69,0,0,0,10.12,23l1.25,1.73L8,27.23A11.81,11.81,0,0,0,5.29,43.69l.37.51a11.8,11.8,0,0,0,16.46,2.68h0L31,40.46a3.52,3.52,0,0,0,1.57-.63L35.07,38a3.55,3.55,0,0,0,.81-4.95l-.29-.4a3.5,3.5,0,0,0-2.31-1.43h-.07a.14.14,0,0,0,0-.07,3.54,3.54,0,0,0-.32-2.13L45,20.36A4.71,4.71,0,0,0,46.05,13.81ZM37.58,5.48l1.31,1.81L20.32,20.88a3.53,3.53,0,0,0-3.82.2L13,23.6l-.19-.26ZM11.28,19.87a2.66,2.66,0,0,1,1.08-1.75L32.77,3.41a2.67,2.67,0,0,1,1.56-.51,2.18,2.18,0,0,1,.44,0,2.63,2.63,0,0,1,1.62.93L11.65,21.7A2.6,2.6,0,0,1,11.28,19.87ZM21,45.25A9.83,9.83,0,0,1,7.28,43l-.37-.52A9.81,9.81,0,0,1,9.13,28.85l8.54-6.15a1.55,1.55,0,0,1,2.16.35l.29.4a1.55,1.55,0,0,1-.35,2.16l-7.16,5.16.59.81.58.81,2-1.46L18,34A4.67,4.67,0,0,0,21.84,36a4.6,4.6,0,0,0,2.73-.88h0l.19-.13a3.55,3.55,0,0,0,1.92,1h.06a3.5,3.5,0,0,0,.61,2.71l.28.4a3.59,3.59,0,0,0,.84.81L21,45.19l-.09.06m5.48-11.52,4.81-3.46a1.72,1.72,0,0,1,0,.6,1.54,1.54,0,0,1-.63,1l-2.48,1.79a1.51,1.51,0,0,1-1.15.27A1.4,1.4,0,0,1,26.43,33.73Zm7.54.13.29.39a1.59,1.59,0,0,1,.27,1.16,1.54,1.54,0,0,1-.63,1l-2.48,1.79a1.56,1.56,0,0,1-2.17-.35l-.28-.4a1.55,1.55,0,0,1,.35-2.16l2.48-1.79a1.54,1.54,0,0,1,2.17.35Zm9.85-15.12L23.4,33.45h0a2.7,2.7,0,0,1-3.75-.61l-2.22-3.08,3.51-2.52a3.56,3.56,0,0,0,.81-4.94L40.05,8.92,44.43,15A2.71,2.71,0,0,1,43.82,18.74Z"/></svg>