<svg id="Capa_1" data-name="Capa 1" xmlns="http://www.w3.org/2000/svg" viewBox="0 0 50 50"><defs><style>.cls-1{fill:#330033;}</style></defs><title>Mesa de trabajo 2 copia 3</title><path class="cls-1" d="M7.52,20.86,9.9,24.34l-.32,4.21.57,1L14,31.35l.92,1.91v13l1.42.91L25.36,43l9.08,4.18,1.42-.91V31.76l.19-.41,3.8-1.82.57-1-.32-4.21,2.38-3.48V19.73L40.1,16.25l.32-4.2-.57-1-3.8-1.82-1.82-3.8-1-.57L29,5.2,25.56,2.82H24.44L21,5.2l-4.21-.32-1,.57L14,9.25l-3.8,1.82-.57,1,.32,4.2L7.52,19.73Zm4.23-3.77.18-.64-.3-3.87,3.5-1.68.47-.47,1.68-3.5,3.87.29.64-.17L25,4.86l3.21,2.19.64.17,3.87-.29,1.68,3.5.47.47,3.5,1.68-.3,3.87.18.64,2.19,3.21-2.19,3.2-.18.65.3,3.87-3.5,1.68-.47.47-1.68,3.5-3.87-.3-.64.18L25,35.74l-3.21-2.19-.64-.18-3.87.3-1.68-3.5-.47-.47L11.63,28l.3-3.87-.18-.65L9.56,20.3Zm14,23.9h-.84l-8.07,3.72v-9L21,35.39l3.48,2.38h1.12L29,35.39l4.21.32.61-.35v9.35Z"/><path class="cls-1" d="M25,33.08A12.78,12.78,0,1,0,12.22,20.3,12.8,12.8,0,0,0,25,33.08ZM35.78,20.3A10.78,10.78,0,1,1,25,9.52,10.8,10.8,0,0,1,35.78,20.3Z"/></svg>