<svg id="Capa_1" data-name="Capa 1" xmlns="http://www.w3.org/2000/svg" viewBox="0 0 50 50"><defs><style>.cls-1{fill:#330033;}</style></defs><title>Mesa de trabajo 2 copia 4</title><path class="cls-1" d="M43.33,10.24l-4,1.93c-.25-.29-.5-.55-.75-.8A19.48,19.48,0,0,0,35.78,9,19.2,19.2,0,0,0,32.5,7.25a18.52,18.52,0,0,0-3.62-1.13,19.5,19.5,0,0,0-7.76,0A19.58,19.58,0,0,0,14.22,9,19.68,19.68,0,0,0,9,14.22,19.2,19.2,0,0,0,7.25,17.5a19,19,0,0,0-1.13,3.62L6.9,22.3l5.64,1.16,1.18-.78a12.29,12.29,0,0,1,.67-2.16,11.85,11.85,0,0,1,1.06-1.95,12.21,12.21,0,0,1,1.41-1.71,11.55,11.55,0,0,1,1.71-1.41,11.85,11.85,0,0,1,1.95-1.06,11.51,11.51,0,0,1,2.16-.67,11.69,11.69,0,0,1,4.64,0,11.51,11.51,0,0,1,2.16.67,11.85,11.85,0,0,1,1.95,1.06l.5.36-3.06,1.5L29,19.15l10.76,3.69L41,22.22l3.7-10.76ZM39.45,20.63,31.92,18,34.17,17l.26-1.62a13.74,13.74,0,0,0-4.17-2.78,14.1,14.1,0,0,0-2.54-.79,13.84,13.84,0,0,0-5.44,0,14.1,14.1,0,0,0-2.54.79,13.38,13.38,0,0,0-2.29,1.25,12.62,12.62,0,0,0-2,1.65,13.19,13.19,0,0,0-1.65,2,13.38,13.38,0,0,0-1.25,2.29h0A14.43,14.43,0,0,0,12,21.3l-3.69-.75a17.35,17.35,0,0,1,.78-2.27,17,17,0,0,1,1.59-2.94,17.6,17.6,0,0,1,4.66-4.66,17.43,17.43,0,0,1,6.18-2.6,17.22,17.22,0,0,1,10.2,1,17.39,17.39,0,0,1,2.94,1.59,17.75,17.75,0,0,1,2.55,2.11,16.71,16.71,0,0,1,1.13,1.26l1.21.26L42,13.09Z"/><path class="cls-1" d="M21,30.84,10.25,27.15,9,27.77,5.28,38.54l1.39,1.22,4-1.94c.26.3.5.56.74.8A19.46,19.46,0,0,0,14.22,41a18.57,18.57,0,0,0,3.28,1.78A19,19,0,0,0,25,44.27a20.1,20.1,0,0,0,3.88-.39,19.46,19.46,0,0,0,3.62-1.13A18.57,18.57,0,0,0,35.78,41a19.23,19.23,0,0,0,7-8.47,19.46,19.46,0,0,0,1.13-3.62L43.1,27.7l-5.65-1.15-1.18.77a11.71,11.71,0,0,1-.66,2.16,12.27,12.27,0,0,1-1.06,1.95,12.81,12.81,0,0,1-1.41,1.71,12.21,12.21,0,0,1-1.71,1.41,11.86,11.86,0,0,1-1.95,1.05,10.93,10.93,0,0,1-2.15.67,11.56,11.56,0,0,1-4.65,0,10.81,10.81,0,0,1-2.16-.67,11.86,11.86,0,0,1-1.95-1.05c-.17-.12-.34-.24-.5-.37l3.06-1.49Zm-5.18,2.21-.26,1.62a14,14,0,0,0,1.88,1.53,14.17,14.17,0,0,0,2.29,1.25,13.83,13.83,0,0,0,2.54.78,13.52,13.52,0,0,0,5.45,0,14,14,0,0,0,2.53-.78,14.17,14.17,0,0,0,2.29-1.25,13.58,13.58,0,0,0,3.65-3.65,13.76,13.76,0,0,0,1.25-2.29A14.43,14.43,0,0,0,38,28.7l3.69.75a18.43,18.43,0,0,1-.78,2.27,16.56,16.56,0,0,1-1.59,2.93,17.3,17.3,0,0,1-2.11,2.56,17.75,17.75,0,0,1-2.55,2.11,17,17,0,0,1-2.94,1.59,17.39,17.39,0,0,1-3.24,1,17.72,17.72,0,0,1-7,0,17.43,17.43,0,0,1-6.18-2.6,17.75,17.75,0,0,1-2.55-2.11c-.35-.35-.72-.77-1.13-1.26l-1.21-.26L8,36.9l2.59-7.53L18.08,32Z"/></svg>