<svg id="Capa_1" data-name="Capa 1" xmlns="http://www.w3.org/2000/svg" viewBox="0 0 50 50"><defs><style>.cls-1{fill:#330033;}</style></defs><title>Mesa de trabajo 2 copia 5</title><path class="cls-1" d="M36.46,25.24a1.63,1.63,0,1,0,1.64,1.63A1.63,1.63,0,0,0,36.46,25.24Z"/><path class="cls-1" d="M43.9,24.94H42a14.4,14.4,0,0,0-3.34-5.72c1.9-4,1.56-4.86,1.4-5.26a1.27,1.27,0,0,0-.78-.76l-.21-.06a10,10,0,0,0-7.62,2,14.48,14.48,0,0,0-2.08-.3,7.78,7.78,0,0,0,1.26-4.26,7.89,7.89,0,1,0-14.33,4.53A14.34,14.34,0,0,0,8.8,19.36,7,7,0,0,1,6.27,15.5l-1.74-.39a7.14,7.14,0,0,0,1,10A14.27,14.27,0,0,0,9.65,39.69l-.92,2.39a3.17,3.17,0,0,0,1.81,4.1l2.47,1a3.17,3.17,0,0,0,4.1-1.81l.75-1.94a12.63,12.63,0,0,0,1.47.08h8.93a12.35,12.35,0,0,0,1.46-.08l.75,1.94a3.17,3.17,0,0,0,1.68,1.75,3.22,3.22,0,0,0,1.29.28,3,3,0,0,0,1.14-.22l2.46-1a3.18,3.18,0,0,0,1.82-4.1l-.93-2.39a14.37,14.37,0,0,0,2.85-3.59H43.9a3.18,3.18,0,0,0,3.17-3.17V28.11A3.17,3.17,0,0,0,43.9,24.94ZM16.84,10.54a5.89,5.89,0,1,1,5.89,5.89A5.89,5.89,0,0,1,16.84,10.54ZM45.07,32.93A1.17,1.17,0,0,1,43.9,34.1H40.18l-.9.55a12.57,12.57,0,0,1-3.24,4l-.16,1.38a1.35,1.35,0,0,1,.16.27l1,2.47a1.17,1.17,0,0,1-.67,1.51l-2.47,1a1.15,1.15,0,0,1-.89,0,1.12,1.12,0,0,1-.62-.64l-1-2.48,0-.11-1.13-.72a11.92,11.92,0,0,1-2,.17H19.33a12.13,12.13,0,0,1-2-.17L16.23,42l-1,2.59a1.19,1.19,0,0,1-1.52.67l-2.46-1a1.17,1.17,0,0,1-.68-1.51l1-2.47a1,1,0,0,1,.16-.27l-.16-1.38A12.32,12.32,0,0,1,7,29.1a12.18,12.18,0,0,1,.69-4l-.4-1.17a5.09,5.09,0,0,1-2.33-4.28,4.93,4.93,0,0,1,.22-1.53,9.06,9.06,0,0,0,3.32,3.44l1.28-.23A12.4,12.4,0,0,1,18,16.82a7.82,7.82,0,0,0,9.61-.08h.68a14.14,14.14,0,0,1,1.59.1,4.57,4.57,0,0,0-.73,1.51l1,.22h0l1,.22a5.94,5.94,0,0,1,1.29-1.87,7.89,7.89,0,0,1,5.75-1.86A19.23,19.23,0,0,1,36.53,19l.21,1.16a12.38,12.38,0,0,1,3.51,6l1,.76H43.9a1.17,1.17,0,0,1,1.17,1.17Z"/><polygon class="cls-1" points="18.55 18.79 18.55 19.79 18.55 20.79 26.9 20.79 26.9 19.79 26.9 18.79 18.55 18.79"/><polygon class="cls-1" points="30.09 18.57 30.09 18.57 30.09 18.57 30.09 18.57"/></svg>