<svg id="Capa_1" data-name="Capa 1" xmlns="http://www.w3.org/2000/svg" viewBox="0 0 50 50"><defs><style>.cls-1{fill:#330033;}</style></defs><title>Mesa de trabajo 2 copia</title><path class="cls-1" d="M15.61,45.68H35.39a3.37,3.37,0,0,0,3.37-3.37v-.45a3.31,3.31,0,0,0-.3-1.37h2.1a3.37,3.37,0,0,0,3.37-3.37v-.45a3.31,3.31,0,0,0-.38-1.51A3.37,3.37,0,0,0,46,31.94v-.46a3.37,3.37,0,0,0-3.37-3.36h-1.5a3.46,3.46,0,0,0,.29-1.37V26.3a3.37,3.37,0,0,0-3.36-3.37H36.53a10.31,10.31,0,1,0-14.21-2,10.67,10.67,0,0,0-1.55.94H15.09v0A11.6,11.6,0,0,0,4,33.46v.62A11.61,11.61,0,0,0,15.61,45.68ZM6,33.46a9.61,9.61,0,0,1,9.6-9.59h9.23a1.37,1.37,0,0,1,1.37,1.37v.45a1.37,1.37,0,0,1-1.37,1.37H16.67v1.49a9.9,9.9,0,0,0-.15,1.64,10.32,10.32,0,0,0,10.31,10.3h8.56a1.37,1.37,0,0,1,1.37,1.37v.45a1.37,1.37,0,0,1-1.37,1.37H15.61A9.62,9.62,0,0,1,6,34.08ZM30.45,6.32a8.3,8.3,0,0,1,3.05,16,10.23,10.23,0,0,0-6.67-2.47,10.33,10.33,0,0,0-2.51.32,8.21,8.21,0,0,1-2.17-5.57A8.31,8.31,0,0,1,30.45,6.32Zm9,20v.45a1.37,1.37,0,0,1-1.36,1.37H36.92a10,10,0,0,0-1.24-3.19h2.37A1.36,1.36,0,0,1,39.41,26.3ZM44,31.48v.46a1.37,1.37,0,0,1-1.37,1.36h-6a10.32,10.32,0,0,0,.48-3.11v-.07h5.49A1.37,1.37,0,0,1,44,31.48Zm-2.06,5.19v.45a1.37,1.37,0,0,1-1.37,1.37H32.9a10.29,10.29,0,0,0,2.86-3.19h4.8A1.38,1.38,0,0,1,41.93,36.67Zm-6.8-6.48a8.31,8.31,0,1,1-16.52-1.13h6.23a3.37,3.37,0,0,0,3.37-3.37v-.45A3.37,3.37,0,0,0,25.64,22a7.74,7.74,0,0,1,1.19-.1A8.31,8.31,0,0,1,35.13,30.19Zm.26,14.49Z"/></svg>