<svg id="Capa_1" data-name="Capa 1" xmlns="http://www.w3.org/2000/svg" viewBox="0 0 50 50"><defs><style>.cls-1{fill:#330033;}</style></defs><title>Mesa de trabajo 2</title><path class="cls-1" d="M8.85,27.51a3.56,3.56,0,0,0,.8,3.77l.35.34a3.52,3.52,0,0,0,2.51,1h.06a3.56,3.56,0,0,0,1,2.57l.34.35a3.58,3.58,0,0,0,2.51,1h.07a3.53,3.53,0,0,0,1,2.58l.35.34a3.52,3.52,0,0,0,2.51,1h.07s0,0,0,.06a3.51,3.51,0,0,0,1,2.51l.34.35a3.56,3.56,0,0,0,5,0l2.16-2.16A3.61,3.61,0,0,0,29.89,40a3.36,3.36,0,0,0,.63.06A3.54,3.54,0,0,0,33,39l.35-.34a3.53,3.53,0,0,0,1-2.58h.07A3.59,3.59,0,0,0,37,35l.34-.35a3.58,3.58,0,0,0,1-2.58h.06a3.54,3.54,0,0,0,2.51-1l.35-.34a3.55,3.55,0,0,0,.68-4l.65-.65a11.81,11.81,0,0,0,0-16.68l-.45-.45a11.83,11.83,0,0,0-16.68,0l-.49.5-.5-.5a11.83,11.83,0,0,0-16.68,0l-.45.45A11.83,11.83,0,0,0,7.37,26ZM23.28,42.08l-.35-.35a1.57,1.57,0,0,1,0-2.2l2.17-2.16a1.56,1.56,0,0,1,2.19,0l.35.35a1.56,1.56,0,0,1,0,2.19l-2.17,2.17A1.56,1.56,0,0,1,23.28,42.08ZM19,37.78a1.55,1.55,0,0,1,0-2.2l2.16-2.16a1.52,1.52,0,0,1,1.1-.46,1.54,1.54,0,0,1,1.1.46l.34.34a1.55,1.55,0,0,1,0,2.2l-2.16,2.16a1.55,1.55,0,0,1-2.2,0Zm-4-4a1.57,1.57,0,0,1,0-2.2l2.17-2.16a1.56,1.56,0,0,1,2.19,0l.35.35a1.56,1.56,0,0,1,0,2.19l-2.17,2.17a1.56,1.56,0,0,1-2.19,0Zm-3.95-4a1.54,1.54,0,0,1,0-2.19l2.16-2.16a1.55,1.55,0,0,1,2.2,0l.34.34a1.55,1.55,0,0,1,0,2.2l-2.16,2.16a1.56,1.56,0,0,1-2.2,0ZM33.83,7.47a9.73,9.73,0,0,1,6.93,2.86l.45.44a9.83,9.83,0,0,1,0,13.86l-.5.49-11-11H28.24L22,20.31a1.56,1.56,0,0,1-2.2,0L19.47,20a1.55,1.55,0,0,1,0-2.2l7.44-7.43A9.73,9.73,0,0,1,33.83,7.47Zm-4,25.39L32,35a1.54,1.54,0,0,1,0,2.19l-.34.35a1.56,1.56,0,0,1-1.66.34,3.56,3.56,0,0,0-.91-1.61L28.71,36a3.4,3.4,0,0,0-1.23-.77A3.71,3.71,0,0,0,26.12,35s0-.07,0-.1a3.56,3.56,0,0,0-1-2.51L24.75,32a3.62,3.62,0,0,0-2.58-1s0-.06,0-.1a3.52,3.52,0,0,0-1-2.51l-.35-.34a3.54,3.54,0,0,0-2.57-1,3.59,3.59,0,0,0-1-2.57l-.35-.35a3.55,3.55,0,0,0-5,0L10,25.87,8.79,24.63a9.83,9.83,0,0,1,0-13.86l.44-.44a9.83,9.83,0,0,1,13.86,0l.49.49-5.52,5.53a3.54,3.54,0,0,0,0,5l.34.35a3.55,3.55,0,0,0,5,0L29,16.19,37.71,25l2.17,2.17a1.56,1.56,0,0,1,0,2.19l-.35.35a1.57,1.57,0,0,1-2.2,0l-2.16-2.17h0L31.64,24l-1.42,1.41h0l3.54,3.54,2.16,2.16a1.54,1.54,0,0,1,.45,1.1,1.56,1.56,0,0,1-.45,1.1l-.35.34a1.54,1.54,0,0,1-2.19,0l-2.16-2.16h0l-3.54-3.54h0l-1.41,1.42,3.53,3.53"/></svg>