<?xml version="1.0" encoding="utf-8"?>
<!-- Generator: Adobe Illustrator 21.1.0, SVG Export Plug-In . SVG Version: 6.00 Build 0)  -->
<svg version="1.1" id="Capa_1" xmlns="http://www.w3.org/2000/svg" xmlns:xlink="http://www.w3.org/1999/xlink" x="0px" y="0px"
	 viewBox="0 0 22.5 38.2" style="enable-background:new 0 0 22.5 38.2;" xml:space="preserve">
<style type="text/css">
	.st0{fill:#FFFFFF;}
</style>
<path class="st0" d="M19.6,0c0.9,0.3,1.4,1.1,2.1,1.7c1.1,1.1,1.1,2.2,0,3.3c-4.6,4.6-9.2,9.2-13.8,13.8c-0.3,0.3-0.3,0.4,0,0.7
	c4.6,4.6,9.2,9.2,13.8,13.8c0.8,0.8,1,1.8,0.5,2.7c-0.5,0.8-1.2,1.5-2,2c-0.8,0.5-1.7,0.4-2.4-0.2c-0.1-0.1-0.2-0.2-0.3-0.3
	C11.9,31.9,6.3,26.3,0.8,20.8c-0.8-0.8-1-1.8-0.5-2.7c0.1-0.2,0.3-0.4,0.5-0.6C6.3,11.9,11.9,6.3,17.5,0.8c0.4-0.4,0.8-0.6,1.3-0.8
	C19,0,19.3,0,19.6,0z"/>
</svg>
