<?xml version="1.0" encoding="utf-8"?>
<!-- Generator: Adobe Illustrator 21.1.0, SVG Export Plug-In . SVG Version: 6.00 Build 0)  -->
<svg version="1.1" id="Capa_1" xmlns="http://www.w3.org/2000/svg" xmlns:xlink="http://www.w3.org/1999/xlink" x="0px" y="0px"
	 viewBox="0 0 19 19" style="enable-background:new 0 0 19 19;" xml:space="preserve">
<style type="text/css">
	.st0{fill:#993399;}
</style>
<path class="st0" d="M17.1,16.1l-4.8-4.8c0.7-1,1.2-2.2,1.2-3.4c0-3.2-2.6-5.7-5.7-5.7S1.9,4.7,1.9,7.9s2.6,5.7,5.7,5.7
	c1.3,0,2.5-0.4,3.4-1.2l4.8,4.8L17.1,16.1z M3.5,7.9c0-2.3,1.9-4.1,4.1-4.1c2.3,0,4.1,1.9,4.1,4.1S10,12,7.7,12
	C5.4,12,3.5,10.1,3.5,7.9z"/>
</svg>
