<?xml version="1.0" encoding="utf-8"?>
<!-- Generator: Adobe Illustrator 23.0.6, SVG Export Plug-In . SVG Version: 6.00 Build 0)  -->
<svg version="1.1" id="Capa_1" xmlns="http://www.w3.org/2000/svg" xmlns:xlink="http://www.w3.org/1999/xlink" x="0px" y="0px"
	 viewBox="0 0 50 50" style="enable-background:new 0 0 50 50;" xml:space="preserve">
<style type="text/css">
	.st0{fill:#FFFFFF;}
</style>
<g>
	<line class="st0" x1="21.2" y1="46.6" x2="21.2" y2="46.6"/>
	<path class="st0" d="M44.7,15.3c-0.3-0.9-1-1.5-1.9-1.6l-8.9-1.3l-4-8.1c-0.4-0.8-1.2-1.3-2.1-1.3c-0.9,0-1.7,0.5-2.1,1.3l-4,8.1
		l-8.9,1.3c-0.9,0.1-1.6,0.7-1.9,1.6c-0.3,0.9-0.1,1.8,0.6,2.4l2.9,2.9L4.7,34l1.9,1.4l9.5-13.1l1.8,1.7l-1.5,8.9
		c-0.1,0.5,0,0.9,0.2,1.3l-7,9.7l1.9,1.4l7-9.7c0.1,0,0.1,0,0.2,0c0.4,0,0.8-0.1,1.1-0.3l8-4.2l2.2,1.2l-9.8,13.5l1,0.7l1,0.7
		l10-13.8l3.6,1.9c0.8,0.4,1.8,0.4,2.5-0.2c0.7-0.5,1.1-1.4,0.9-2.3l-1.5-8.9l6.5-6.3C44.8,17.1,45,16.2,44.7,15.3z M18.8,33.3
		l1.7-10.1l-7.4-7.1l10.2-1.5l4.5-9.2l4.5,9.2l10.1,1.4l-7.4,7.2l1.8,10.1l-9.1-4.8L18.8,33.3z"/>
</g>
</svg>
