<?xml version="1.0" encoding="utf-8"?>
<!-- Generator: Adobe Illustrator 23.0.4, SVG Export Plug-In . SVG Version: 6.00 Build 0)  -->
<svg version="1.1" id="Capa_1" xmlns="http://www.w3.org/2000/svg" xmlns:xlink="http://www.w3.org/1999/xlink" x="0px" y="0px"
	 viewBox="0 0 30 29.8" style="enable-background:new 0 0 30 29.8;" xml:space="preserve">
<style type="text/css">
	.st0{fill:#FFFFFF;}
</style>
<g>
	<g>
		<g>
			<path class="st0" d="M30,15c0-8.3-6.7-15-15-15S0,6.7,0,15c0,7.5,5.5,13.7,12.8,14.8V19H9V15h3.7v-2.6c0-4.3,2.1-6.3,5.7-6.3
				c1.7,0,2.6,0.1,3.1,0.2v3.4h-2.5c-1.5,0-2.1,1.5-2.1,3.1V15h4.5L20.9,19H17v10.9C24.3,28.8,30,22.6,30,15z"/>
		</g>
		<path class="st0" d="M12.8,29.8C12.8,29.8,12.8,29.8,12.8,29.8C12.8,29.8,12.8,29.8,12.8,29.8L12.8,29.8z"/>
	</g>
</g>
</svg>
