<?xml version="1.0" encoding="utf-8"?>
<!-- Generator: Adobe Illustrator 21.1.0, SVG Export Plug-In . SVG Version: 6.00 Build 0)  -->
<svg version="1.1" id="Capa_1" xmlns="http://www.w3.org/2000/svg" xmlns:xlink="http://www.w3.org/1999/xlink" x="0px" y="0px"
	 viewBox="0 0 177 48" style="enable-background:new 0 0 177 48;" xml:space="preserve">
<style type="text/css">
	.st0{fill:#263E8C;}
</style>
<g>
	<g>
		<path class="st0" d="M105.1,14.1c-6.1,2-9,7.3-9,12.6c0,5.3,3,10.6,9,12.6c8,2.6,14.5-0.4,14.5-0.4v-2.7c0,0-5.4,1.4-9.9-1.3
			c-2.4-1.5-3.9-4.8-3.9-8.2c0-3.4,1.5-6.7,3.9-8.2c4.5-2.8,9.9-1.3,9.9-1.3v-2.7C119.7,14.5,113.1,11.5,105.1,14.1z"/>
		<polygon class="st0" points="126.6,16.8 126.6,39.9 135.7,39.9 135.7,12.7 		"/>
		<path class="st0" d="M82,13.7c-2.1-0.7-4-1-5.8-1l-4.5,2.1l0-2.7l-9.1,4.4l0,30.5h9.1l0-7.7c2.4,0.6,5.8,0.8,9.9-0.3
			C93.9,35.5,94.3,17.7,82,13.7z M78,34.1c-2.2,1.8-4.4,2.3-6.3,2.1l0-19.8c1.8,0.1,3.8,0.5,5.7,1.7C81.8,20.9,83,29.8,78,34.1z"/>
		<path class="st0" d="M133.3,2.2c-2.5,0-5.5,2-6.7,4.6c-1.2,2.5-0.1,4.6,2.4,4.6c2.5,0,5.5-2,6.7-4.6
			C136.9,4.3,135.8,2.2,133.3,2.2z"/>
		<path class="st0" d="M12.5,34.3c-0.1-0.1-0.1-0.1-0.2-0.2c-0.1-0.1-0.2-0.2-0.4-0.3c-1.5-1.5-2.4-3.6-2.4-5.9L9.5,0L0.4,4.6
			l0,26.7c0,0,0,0,0,0c0.1,3.3,4.3,7.1,9.4,8.2c0.1,0,0.3,0.1,0.6,0.1c4.7,0.9,9,0.1,11.7-1.2v-0.1v-2.6
			C18.2,36.9,14.8,36.2,12.5,34.3z"/>
		<path class="st0" d="M152.6,27.8l0-11.9H165l0.1-3.4h-12.5l0-12.6l-9.1,4.5l0,26.7c0,0,0,0,0,0c0.1,3.3,4.3,7.1,9.4,8.2
			c5,1.1,9.5,0.3,12.2-1.1v-2.7C158.3,37.8,152.6,33.9,152.6,27.8z"/>
		<path class="st0" d="M55,28.1c0.2-6.8,0.4-10.6-6.2-14.3C36.9,7.2,22.6,16.6,25.3,29C28,41.4,41.1,40,41.1,40l4.3-3.8
			c-5-0.4-10.4-2.2-10.8-9.9c-0.5-8.9,7.2-10.1,7.2-10.1c8,0.6-0.5,14,6.1,24.1l8.5-4.8C56.4,35.5,54.8,34.2,55,28.1z"/>
	</g>
	<g>
		<path class="st0" d="M176.6,37.6c0,0.4-0.1,0.8-0.2,1.2c-0.2,0.4-0.4,0.7-0.6,0.9s-0.6,0.4-0.9,0.6c-0.3,0.1-0.7,0.2-1.1,0.2
			c-0.4,0-0.8-0.1-1.1-0.2s-0.6-0.3-0.9-0.6c-0.2-0.3-0.4-0.6-0.6-0.9c-0.1-0.4-0.2-0.7-0.2-1.1c0-0.4,0.1-0.8,0.2-1.2
			c0.2-0.4,0.4-0.7,0.6-0.9s0.6-0.4,0.9-0.6c0.3-0.1,0.7-0.2,1.1-0.2c0.4,0,0.7,0.1,1.1,0.2c0.3,0.1,0.6,0.3,0.9,0.6
			s0.5,0.6,0.6,0.9C176.5,36.8,176.6,37.2,176.6,37.6z M176,37.6c0-0.3-0.1-0.7-0.2-1c-0.1-0.3-0.3-0.5-0.5-0.8
			c-0.2-0.2-0.4-0.4-0.7-0.5c-0.3-0.1-0.6-0.2-0.9-0.2c-0.3,0-0.6,0.1-0.9,0.2s-0.5,0.3-0.7,0.5s-0.4,0.5-0.5,0.8s-0.2,0.6-0.2,1
			c0,0.3,0.1,0.6,0.2,0.9c0.1,0.3,0.2,0.5,0.4,0.8c0.2,0.2,0.4,0.4,0.7,0.5s0.6,0.2,0.9,0.2c0.3,0,0.6-0.1,0.9-0.2
			c0.3-0.1,0.5-0.3,0.7-0.5c0.2-0.2,0.4-0.5,0.5-0.7C175.9,38.3,176,37.9,176,37.6z M173.2,39.2h-0.5V36h1.2c0.4,0,0.7,0.1,0.9,0.2
			s0.3,0.4,0.3,0.7c0,0.3-0.1,0.5-0.2,0.6s-0.4,0.2-0.6,0.2l0.9,1.4h-0.6l-0.8-1.4h-0.5V39.2z M173.8,37.4c0.1,0,0.2,0,0.3,0
			s0.2,0,0.2-0.1c0.1,0,0.1-0.1,0.2-0.1s0.1-0.2,0.1-0.3c0-0.1,0-0.2-0.1-0.2s-0.1-0.1-0.2-0.1s-0.1,0-0.2-0.1c-0.1,0-0.2,0-0.2,0
			h-0.6v0.9H173.8z"/>
	</g>
</g>
</svg>
