<?xml version="1.0" encoding="utf-8"?>
<!-- Generator: Adobe Illustrator 21.1.0, SVG Export Plug-In . SVG Version: 6.00 Build 0)  -->
<svg version="1.1" id="Capa_1" xmlns="http://www.w3.org/2000/svg" xmlns:xlink="http://www.w3.org/1999/xlink" x="0px" y="0px"
	 viewBox="0 0 1602.4 182.7" style="enable-background:new 0 0 1602.4 182.7;" xml:space="preserve">
<style type="text/css">
	.st0{fill:#FFFFFF;}
</style>
<g>
	<polygon class="st0" points="1120.7,81.6 1079.5,81.6 1079.5,46 1120.7,46 1120.7,31.5 1065,31.5 1065,146.5 1079.5,146.5 
		1079.5,96.1 1120.7,96.1 	"/>
	<polygon class="st0" points="1167.1,96.2 1208.3,96.2 1208.3,81.7 1167.1,81.7 1167.1,46.1 1208.3,46.1 1208.3,31.6 1152.6,31.6 
		1152.6,146.4 1208.3,146.4 1208.3,131.9 1167.1,131.9 	"/>
	<polygon class="st0" points="842.5,96.2 883.7,96.2 883.7,81.7 842.5,81.7 842.5,46.1 883.7,46.1 883.7,31.6 828,31.6 828,146.4 
		883.7,146.4 883.7,131.9 842.5,131.9 	"/>
	<path class="st0" d="M1456.9,129.6L1444,123c-3.6,6.1-8.9,8.9-16.8,8.9c-8.2,0-13.7-2.2-17.6-7.1c-3.3-4-5.3-9.9-6.4-17.9
		c-0.7-5.4-0.8-9.8-0.8-17.9c0-8.1,0.1-12.6,0.8-17.9c1-8,3.1-13.8,6.4-17.9c5.4-6.3,12.5-7.1,17.4-7.1c7.2,0.3,12.4,2.5,15.6,6.7
		l12.3-7.7c-6-8.6-15.6-13.3-27.8-13.5c0,0,0,0,0,0c-12.5,0-22.2,4.2-28.9,12.5c-5,6.2-8.1,14.4-9.4,25.1
		c-0.8,6.1-0.9,11.1-0.9,19.8c0,8.7,0.1,13.7,0.9,19.8c1.4,10.7,4.5,18.9,9.4,25.1c6.7,8.3,16.3,12.5,28.8,12.5l0.1,1.7l0,0v-1.7
		C1440.5,146.4,1450.8,140.6,1456.9,129.6z"/>
	<rect x="1343.5" y="31.4" class="st0" width="14.5" height="115.2"/>
	<rect x="1016.8" y="31.4" class="st0" width="14.5" height="115.2"/>
	<polygon class="st0" points="1171.1,19.1 1190.5,15.1 1191.9,0 1172.5,4 	"/>
	<path class="st0" d="M1549.4,60.7c-0.7-4.1-1.9-8-3.7-11.5c-5.8-11.6-16.3-17.7-30.4-17.7c-14.1,0-24.6,6.1-30.4,17.7
		c-1.7,3.5-3,7.3-3.7,11.4c-0.2,1.4-0.4,2.6-0.5,3.8c-0.1,0.7-0.1,1.3-0.1,1.7v45.6c0,0.4,0,1,0.1,1.7c0.1,1.2,0.2,2.4,0.5,3.8
		c0.7,4.1,1.9,8,3.7,11.4c5.8,11.6,16.3,17.7,30.4,17.7c14.1,0,24.6-6.1,30.4-17.7c1.7-3.5,3-7.3,3.7-11.4c0.2-1.4,0.4-2.6,0.5-3.8
		c0.1-0.7,0.1-1.3,0.1-1.7V66.2c0-0.4,0-1-0.1-1.7C1549.8,63.3,1549.7,62.1,1549.4,60.7z M1535.4,112.4c0,0.7-0.1,1.5-0.3,2.4
		c-0.5,2.7-1.2,5.2-2.3,7.3c-3.3,6.6-8.8,9.7-17.4,9.7c-8.6,0-14.2-3.1-17.4-9.7c-1.1-2.2-1.9-4.7-2.3-7.3c-0.2-0.9-0.2-1.7-0.3-2.4
		l0-0.7l0-46.2c0.1-0.7,0.1-1.5,0.3-2.4c0.5-2.7,1.2-5.2,2.3-7.3c3.3-6.6,8.9-9.7,17.4-9.7c8.6,0,14.2,3.1,17.4,9.7
		c1.1,2.2,1.9,4.7,2.3,7.4c0.2,0.9,0.2,1.7,0.3,2.4l0,0.6l-1.2,0.1h1.2L1535.4,112.4z"/>
	<path class="st0" d="M1293.5,96.5c11.5-5.8,17.6-16.3,17.6-30.4c0-14.1-6.1-24.6-17.7-30.4c-3.5-1.7-7.3-3-11.5-3.7
		c-1.3-0.2-2.6-0.4-3.8-0.5c-0.7,0-1.3-0.1-1.7-0.1h-34.6v115h14.5v-45.8h19.9l19.5,45.6h15.8l-20.8-48.5L1293.5,96.5z M1279.6,85.9
		c-0.9,0.2-1.7,0.2-2.4,0.3l-0.6,0l-0.1-1v1h-20.1V46h20.1v1.4l0.2-1.4l0.5,0c0.7,0.1,1.5,0.1,2.4,0.3c2.7,0.4,5.1,1.2,7.3,2.3
		c6.6,3.3,9.7,8.8,9.7,17.4s-3.1,14.2-9.7,17.4C1284.8,84.6,1282.3,85.4,1279.6,85.9z"/>
	<path class="st0" d="M969.5,96.5c11.5-5.8,17.7-16.3,17.7-30.4c0-14.1-6.1-24.6-17.7-30.4c-3.5-1.7-7.3-3-11.4-3.7
		c-1.4-0.2-2.6-0.4-3.8-0.5c-0.7,0-1.3-0.1-1.7-0.1h-34.6v115h14.5v-45.8h19.9l19.5,45.6h15.8l-20.8-48.5L969.5,96.5z M955.6,85.9
		c-0.9,0.2-1.7,0.2-2.4,0.3l-0.6,0l-0.1-1.1v1.1h-20.1V46h20.1v1.4l0.2-1.4l0.5,0c0.7,0.1,1.5,0.1,2.4,0.3c2.7,0.4,5.1,1.2,7.3,2.3
		c6.6,3.3,9.7,8.8,9.7,17.4c0,8.6-3.1,14.1-9.7,17.4C960.8,84.6,958.3,85.4,955.6,85.9z"/>
	<polygon class="st0" points="685.2,46 703.7,46 703.7,31.5 670.7,31.5 670.7,182.7 703.7,182.7 703.7,168.2 685.2,168.2 	"/>
	<path class="st0" d="M785.5,35.7c-3.5-1.7-7.3-3-11.4-3.7c-1.4-0.2-2.6-0.4-3.8-0.5c-0.7,0-1.3-0.1-1.7-0.1h-34.6v115h14.5v-45.8
		h20.1c0.4,0,1,0,1.7-0.1c1.1-0.1,2.4-0.2,3.8-0.5c4.1-0.7,8-1.9,11.4-3.7c11.6-5.8,17.7-16.3,17.7-30.4
		C803.1,52,797,41.5,785.5,35.7z M779,83.5c-2.2,1.1-4.7,1.9-7.3,2.3c-0.9,0.1-1.7,0.2-2.4,0.3c-0.2,0-0.4,0-0.6,0l-0.1-1v1h-20.1
		V46h20.1v1.5l0.3-1.5l0.4,0c0.7,0.1,1.5,0.1,2.4,0.3c2.7,0.4,5.1,1.2,7.3,2.3c6.6,3.3,9.7,8.8,9.7,17.4
		C788.6,74.7,785.6,80.2,779,83.5z"/>
	<polygon class="st0" points="1587.9,168.2 1569.4,168.2 1569.4,182.7 1602.4,182.7 1602.4,31.5 1569.4,31.5 1569.4,46 1587.9,46 	
		"/>
	<g>
		<path class="st0" d="M0,79.1h13.2c8.8,0,15.8,3,21.2,9c5.3,6,8,14.2,8,24.7c0,10.7-2.7,18.9-8.1,24.8s-12.3,8.8-20.7,8.8H0V79.1z
			 M7.8,139.5h5.5c6.4,0,11.4-2.4,15.2-7.1c3.7-4.7,5.6-11.3,5.6-19.7c0-8.3-1.9-14.9-5.6-19.7c-3.7-4.8-8.8-7.2-15.1-7.2H7.8V139.5
			z"/>
		<path class="st0" d="M84.7,146.4h-7.4v-43.2H62.7v-6.4h22.1V146.4z M81.1,77.9c1.4,0,2.6,0.5,3.6,1.5s1.5,2.2,1.5,3.6
			c0,1.5-0.5,2.7-1.5,3.7c-1,1-2.2,1.5-3.6,1.5c-1.3,0-2.5-0.5-3.5-1.5s-1.5-2.2-1.5-3.6c0-1.4,0.5-2.6,1.5-3.6
			C78.6,78.4,79.8,77.9,81.1,77.9z"/>
		<path class="st0" d="M150.5,103.8c-4.2-1.4-8.1-2-11.8-2c-4,0-7.2,0.7-9.6,2c-2.4,1.4-3.5,3.2-3.5,5.4c0,1.4,0.5,2.7,1.6,3.7
			c1.1,1.1,3.2,2.1,6.5,3l7.1,2c3.3,0.9,5.9,2,8,3.3c2.1,1.3,3.6,2.8,4.6,4.7c1,1.8,1.5,3.9,1.5,6.4c0,4.7-2,8.5-6,11.2
			c-4,2.7-9,4.1-15.2,4.1c-6.1,0-11.1-0.9-15.1-2.8l1.4-6.4c4.2,2,8.6,3,13.4,3c4.1,0,7.5-0.8,10.1-2.3c2.6-1.5,3.9-3.6,3.9-6.1
			c0-1.7-0.6-3.2-1.9-4.6c-1.3-1.3-4.3-2.8-9.1-4.2c-3.8-1.2-6.7-2.1-8.5-2.6c-1.8-0.6-3.5-1.5-5-2.6c-1.6-1.1-2.7-2.5-3.5-4.1
			c-0.8-1.6-1.2-3.4-1.2-5.3c0-4.3,1.9-7.7,5.6-10.2s8.7-3.8,14.9-3.8c4,0,8.4,0.7,13.3,2L150.5,103.8z"/>
		<path class="st0" d="M215.7,121.8h-34.1c0,5.6,1.6,10.3,4.9,13.9c3.3,3.7,7.2,5.5,12,5.5c4.5,0,9.2-0.8,14-2.4l1.3,6
			c-4.4,2-9.5,3-15.3,3c-7.4,0-13.3-2.4-17.8-7.1c-4.5-4.7-6.8-11.1-6.8-19.2c0-7.9,2-14.2,6.1-18.8c4-4.7,9.3-7,15.7-7
			c5.7,0,10.5,2.2,14.3,6.5c3.8,4.4,5.8,10.1,5.8,17.4V121.8z M207.6,115.7c0-3.9-1.2-7.1-3.6-9.8c-2.4-2.7-5.1-4-8.1-4
			c-3.8,0-7,1.3-9.6,3.8c-2.5,2.5-3.9,5.9-4.2,10H207.6z"/>
		<path class="st0" d="M272.8,146.4h-7.4v-31.8c0-4.4-0.7-7.6-2.1-9.6c-1.4-2-3.6-3-6.6-3c-4.5,0-9.4,2.8-14.6,8.5v35.9h-7.4V96.7
			h7.4v7.3c5.3-5.7,11-8.5,16.9-8.5c9.3,0,14,5.6,14,16.9V146.4z M270,79c-1.1,7.3-4.1,11-9.1,11c-1.8,0-4.5-0.9-8.3-2.7
			c-3.2-1.5-5.5-2.3-6.8-2.3c-1.2,0-2.3,0.5-3.2,1.4c-0.9,1-1.5,2.1-1.7,3.6h-4c1.1-7.3,4.1-11,9.1-11c1.8,0,4.5,0.9,8.3,2.7
			c3.2,1.5,5.5,2.3,6.8,2.3c1.2,0,2.3-0.5,3.2-1.4c0.9-1,1.5-2.1,1.7-3.6H270z"/>
		<path class="st0" d="M312.1,95.5c6.8,0,12.3,2.4,16.3,7.1c4,4.8,6.1,11,6.1,18.8c0,7.8-2,14.2-6.1,19c-4,4.8-9.5,7.2-16.3,7.2
			c-6.9,0-12.3-2.4-16.3-7.2c-4-4.8-6-11.1-6-19c0-7.8,2-14.1,6.1-18.8C299.8,97.9,305.2,95.5,312.1,95.5z M312.1,141.2
			c4.5,0,8.1-1.9,10.7-5.7c2.6-3.8,3.9-8.4,3.9-13.9c0-5.7-1.3-10.4-3.9-14.1c-2.6-3.7-6.1-5.5-10.7-5.5c-4.6,0-8.2,1.8-10.7,5.5
			c-2.5,3.6-3.8,8.4-3.8,14.2c0,5.5,1.3,10.2,3.9,13.9C304,139.3,307.5,141.2,312.1,141.2z"/>
		<path class="st0" d="M417.6,103.1c1.7-2.3,3.9-4.1,6.7-5.5c2.8-1.4,5.8-2.1,8.9-2.1c5.7,0,10.2,2.4,13.5,7.1
			c3.3,4.7,4.9,10.9,4.9,18.4c0,7.6-1.7,14-5.1,19c-3.4,5.1-8,7.6-13.8,7.6c-3.1,0-6-0.8-8.6-2.3c-2.7-1.5-4.8-3.6-6.4-6.1V166h-7.4
			V96.7h7.4V103.1z M417.6,110.5v20.6c1.4,2.8,3.3,5.1,5.7,7c2.4,1.9,4.8,2.8,7.4,2.8c4,0,7.2-1.9,9.6-5.6c2.4-3.7,3.5-8.4,3.5-14
			c0-5.7-1.1-10.4-3.4-14c-2.3-3.6-5.4-5.4-9.4-5.4C425.7,101.9,421.3,104.8,417.6,110.5z"/>
		<path class="st0" d="M487.7,95.5c6.8,0,12.3,2.4,16.3,7.1c4,4.8,6.1,11,6.1,18.8c0,7.8-2,14.2-6.1,19c-4,4.8-9.5,7.2-16.3,7.2
			c-6.9,0-12.3-2.4-16.3-7.2c-4-4.8-6-11.1-6-19c0-7.8,2-14.1,6.1-18.8C475.5,97.9,480.9,95.5,487.7,95.5z M487.7,141.2
			c4.5,0,8.1-1.9,10.7-5.7c2.6-3.8,3.9-8.4,3.9-13.9c0-5.7-1.3-10.4-3.9-14.1c-2.6-3.7-6.1-5.5-10.7-5.5c-4.6,0-8.2,1.8-10.7,5.5
			c-2.5,3.6-3.8,8.4-3.8,14.2c0,5.5,1.3,10.2,3.9,13.9C479.6,139.3,483.2,141.2,487.7,141.2z"/>
		<path class="st0" d="M566.3,98l-3,7.1c-3.3-1.4-6.1-2.1-8.5-2.1c-2.2,0-4.3,0.6-6.4,1.9c-2.1,1.3-4,3-5.8,5.4
			c-1.8,2.3-2.6,3.6-2.6,3.9v32.1h-7.4V96.7h7.4v10.1c4-7.5,9.1-11.2,15.4-11.2C559.2,95.5,562.8,96.4,566.3,98z"/>
	</g>
</g>
</svg>
