<?xml version="1.0" encoding="utf-8"?>
<!-- Generator: Adobe Illustrator 21.1.0, SVG Export Plug-In . SVG Version: 6.00 Build 0)  -->
<svg version="1.1" id="Capa_1" xmlns="http://www.w3.org/2000/svg" xmlns:xlink="http://www.w3.org/1999/xlink" x="0px" y="0px"
	 viewBox="0 0 22.5 38.2" style="enable-background:new 0 0 22.5 38.2;" xml:space="preserve">
<style type="text/css">
	.st0{fill:#FFFFFF;}
</style>
<path class="st0" d="M2.9,38.2c-0.9-0.3-1.4-1.1-2.1-1.7c-1.1-1.1-1.1-2.2,0-3.3C5.4,28.6,10,24,14.6,19.5c0.3-0.3,0.3-0.4,0-0.7
	C10,14.2,5.4,9.6,0.8,5C0,4.2-0.2,3.2,0.3,2.3c0.5-0.8,1.2-1.5,2-2C3.1-0.2,4-0.1,4.7,0.5C4.8,0.6,4.9,0.7,5,0.8
	c5.6,5.6,11.1,11.1,16.7,16.7c0.8,0.8,1,1.8,0.5,2.7c-0.1,0.2-0.3,0.4-0.5,0.6C16.1,26.3,10.6,31.9,5,37.5c-0.4,0.4-0.8,0.6-1.3,0.8
	C3.4,38.2,3.1,38.2,2.9,38.2z"/>
</svg>
