<?xml version="1.0" encoding="utf-8"?>
<!-- Generator: Adobe Illustrator 21.1.0, SVG Export Plug-In . SVG Version: 6.00 Build 0)  -->
<svg version="1.1" id="Capa_1" xmlns="http://www.w3.org/2000/svg" xmlns:xlink="http://www.w3.org/1999/xlink" x="0px" y="0px"
	 viewBox="0 0 19 19" style="enable-background:new 0 0 19 19;" xml:space="preserve">
<style type="text/css">
	.st0{fill:#FFFFFF;}
</style>
<g id="VKooRs.tif_4_">
	<g>
		<path class="st0" d="M14,18.6c-0.1,0-0.1,0-0.2,0l-0.3,0c-0.3,0-0.5,0-0.8-0.1c-1.2-0.2-2.4-0.7-3.7-1.6c-1.3-0.8-2.6-1.9-3.9-3.3
			c-1.6-1.7-2.8-3.3-3.6-5.1c-0.6-1.2-0.9-2.2-1-3.3c0-0.4,0-0.7,0.2-1L0.8,4C0.9,3.9,1,3.7,1.1,3.6l0.2-0.2c0.8-1,1.5-1.9,2.5-2.8
			L4,0.4h0.6L5,0.7C5.1,0.8,5.2,0.9,5.2,1c0.2,0.3,0.4,0.5,0.6,0.8C6.4,2.8,7,3.8,7.5,4.7c0.4,0.7,0.2,1.1-0.3,1.5
			C7.1,6.4,6.9,6.5,6.8,6.6C6.6,6.8,6.4,7,6.2,7.1C6.1,7.2,6,7.3,6,7.3c0,0,0,0.1,0,0.1l0,0.1c0.4,1.2,1,2.3,1.9,3.3
			c0.7,0.8,1.5,1.5,2.3,1.9c0.5,0.2,0.9,0.3,1.3,0.4c0.1,0,0.1,0,0.1,0c0.3-0.3,0.7-0.7,1-1c0.6-0.5,1-0.6,1.7-0.2
			c1.3,0.7,2.4,1.4,3.4,2.2c0.1,0.1,0.2,0.2,0.3,0.3l0.3,0.3v0.6l-0.2,0.3L18,15.9c-0.2,0.2-0.5,0.4-0.7,0.7
			c-0.2,0.2-0.4,0.3-0.6,0.4c-0.6,0.4-1.2,0.8-1.8,1.3C14.6,18.5,14.3,18.6,14,18.6z M2,5c0.1,0.9,0.4,1.8,0.9,2.8
			c0.8,1.6,1.9,3.1,3.4,4.7c1.2,1.3,2.4,2.3,3.6,3.1c1.1,0.7,2.2,1.2,3.2,1.4c0.2,0,0.4,0.1,0.6,0.1l0.4,0c0.7-0.4,1.3-0.8,1.9-1.3
			c0.1-0.1,0.3-0.2,0.4-0.3c0.1-0.1,0.3-0.3,0.4-0.4c-0.9-0.6-1.8-1.2-2.9-1.8c-0.3,0.3-0.6,0.6-0.9,0.9c-0.4,0.4-0.8,0.5-1.4,0.5
			c-0.6-0.1-1.2-0.2-1.8-0.5c-1-0.5-1.9-1.2-2.8-2.2C5.8,10.7,5.1,9.4,4.7,8l0-0.1C4.3,7,4.5,6.7,5.1,6.1c0.2-0.2,0.5-0.4,0.7-0.6
			C5.9,5.4,6,5.3,6.1,5.3c-0.5-0.9-1-1.7-1.5-2.6C4.5,2.5,4.4,2.4,4.3,2.2C3.6,2.9,3.1,3.6,2.5,4.3L2.3,4.5C2.2,4.6,2.2,4.7,2.1,4.9
			L2,5z M1.9,5.1L1.9,5.1C1.9,5.1,1.9,5.1,1.9,5.1z"/>
		<path class="st0" d="M18.6,9.1h-1.5l0-0.6c0-0.2-0.1-0.4-0.1-0.6c-0.5-2.8-2.7-5.1-5.4-5.8C11.2,2.1,11,2.1,10.7,2L9.9,1.9V0.4
			l0.6,0l0.5,0.1c0.3,0,0.6,0.1,0.9,0.2c3.4,0.8,6,3.6,6.6,7c0,0.2,0.1,0.4,0.1,0.7L18.6,9.1z"/>
		<path class="st0" d="M15,9.7l-1.5-0.2c0.1-1.1-0.3-2.2-1.1-3c-0.8-0.8-1.9-1.2-3-1.1L9.3,4c1.5-0.2,3.1,0.4,4.2,1.5
			C14.6,6.6,15.2,8.1,15,9.7z"/>
	</g>
</g>
</svg>
