<svg id="Capa_1" data-name="Capa 1" xmlns="http://www.w3.org/2000/svg" viewBox="0 0 772.76 151.62"><defs><style>.cls-1{fill:#263e8c;}</style></defs><title>texto-valparaiso</title><path class="cls-1" d="M29.58,150.83v-5h-.15a9.08,9.08,0,0,1-4.82,4.45,18.73,18.73,0,0,1-7.23,1.36A17.32,17.32,0,0,1,9.75,150a15.64,15.64,0,0,1-5.4-4.24,18.35,18.35,0,0,1-3.25-6.17A25,25,0,0,1,0,132.17a25.84,25.84,0,0,1,1.06-7.47,17.53,17.53,0,0,1,3.21-6.14,15.46,15.46,0,0,1,5.4-4.16,17.44,17.44,0,0,1,7.56-1.54,18.73,18.73,0,0,1,3.14.29,16.1,16.1,0,0,1,3.36,1,14.46,14.46,0,0,1,3.18,1.79,10,10,0,0,1,2.52,2.76h.15V99.58h6.21v51.25ZM7.27,137.66a13.53,13.53,0,0,0,2.12,4.42A10.32,10.32,0,0,0,13,145.16a11.22,11.22,0,0,0,5.22,1.15,10.82,10.82,0,0,0,5.33-1.22,10.62,10.62,0,0,0,3.58-3.2,13.26,13.26,0,0,0,2-4.49,21.42,21.42,0,0,0,0-10.37,13,13,0,0,0-2.08-4.48,10.58,10.58,0,0,0-3.69-3.12,11.67,11.67,0,0,0-5.48-1.19,10.81,10.81,0,0,0-5.33,1.22,9.82,9.82,0,0,0-3.5,3.23,13.89,13.89,0,0,0-1.9,4.59,23.89,23.89,0,0,0-.59,5.31A18.61,18.61,0,0,0,7.27,137.66Z"/><path class="cls-1" d="M75,148.46a17.32,17.32,0,0,1-10.66,3.16,19.71,19.71,0,0,1-7.85-1.44,15.41,15.41,0,0,1-5.59-4,16.9,16.9,0,0,1-3.4-6.17,29.22,29.22,0,0,1-1.28-7.82,22,22,0,0,1,1.32-7.75,18.4,18.4,0,0,1,3.69-6.1,16.73,16.73,0,0,1,5.62-4A17.44,17.44,0,0,1,64,112.86a15.72,15.72,0,0,1,8.36,2,16.47,16.47,0,0,1,5.33,5.2A20.36,20.36,0,0,1,80.44,127a29,29,0,0,1,.62,7.11H52.8a14.44,14.44,0,0,0,.59,4.63,10.23,10.23,0,0,0,5.84,6.57,13,13,0,0,0,5.33,1,10.87,10.87,0,0,0,6.46-1.8,8.66,8.66,0,0,0,3.32-5.46h6.13Q79.23,145.31,75,148.46Zm-1.5-23.83a10.44,10.44,0,0,0-2.26-3.34,10.69,10.69,0,0,0-7.63-3.05,11,11,0,0,0-4.35.83,10.1,10.1,0,0,0-3.32,2.26,10.87,10.87,0,0,0-2.19,3.34,12.51,12.51,0,0,0-.95,4.06H74.49A12.32,12.32,0,0,0,73.5,124.64Z"/><path class="cls-1" d="M95.16,142.54a6.54,6.54,0,0,0,2.3,2.22,10.29,10.29,0,0,0,3.21,1.18,18.39,18.39,0,0,0,3.69.36,23.28,23.28,0,0,0,3.07-.22,11.52,11.52,0,0,0,3-.79,5.56,5.56,0,0,0,2.23-1.69,4.44,4.44,0,0,0,.88-2.84,4,4,0,0,0-1.83-3.59,15.61,15.61,0,0,0-4.56-2q-2.74-.76-6-1.37a31.1,31.1,0,0,1-6-1.72A12.37,12.37,0,0,1,90.62,129a8,8,0,0,1-1.82-5.6,8.76,8.76,0,0,1,1.28-4.81,10.31,10.31,0,0,1,3.29-3.27,15.2,15.2,0,0,1,4.53-1.87,21.21,21.21,0,0,1,5-.61,30.16,30.16,0,0,1,5.91.54,13.79,13.79,0,0,1,4.78,1.87,9.75,9.75,0,0,1,3.32,3.59,13.48,13.48,0,0,1,1.46,5.64h-6.21a5.84,5.84,0,0,0-3-4.88,9.39,9.39,0,0,0-2.74-1,14.33,14.33,0,0,0-3-.32,18.93,18.93,0,0,0-2.81.22,9.62,9.62,0,0,0-2.59.76,5.22,5.22,0,0,0-1.9,1.44,3.58,3.58,0,0,0-.73,2.33,3.4,3.4,0,0,0,1.13,2.62,9,9,0,0,0,2.88,1.72,25.43,25.43,0,0,0,3.94,1.15q2.19.47,4.38,1a46.89,46.89,0,0,1,4.56,1.22,15,15,0,0,1,3.94,1.9,9.39,9.39,0,0,1,2.77,3,8.63,8.63,0,0,1,1.06,4.45,10.2,10.2,0,0,1-1.42,5.6,11,11,0,0,1-3.73,3.59,15.69,15.69,0,0,1-5.18,1.9,31.28,31.28,0,0,1-5.73.54,27,27,0,0,1-6-.65,14.76,14.76,0,0,1-5-2.12A10.83,10.83,0,0,1,89.46,145,13.27,13.27,0,0,1,88,139.13h6.21A6.74,6.74,0,0,0,95.16,142.54Z"/><path class="cls-1" d="M157.37,150.83v-5h-.15a9.08,9.08,0,0,1-4.82,4.45,18.73,18.73,0,0,1-7.23,1.36,17.32,17.32,0,0,1-7.63-1.58,15.64,15.64,0,0,1-5.4-4.24,18.35,18.35,0,0,1-3.25-6.17,25,25,0,0,1-1.1-7.46,25.84,25.84,0,0,1,1.06-7.47,17.53,17.53,0,0,1,3.21-6.14,15.46,15.46,0,0,1,5.4-4.16,17.44,17.44,0,0,1,7.56-1.54,18.73,18.73,0,0,1,3.14.29,16.1,16.1,0,0,1,3.36,1,14.46,14.46,0,0,1,3.18,1.79,10,10,0,0,1,2.52,2.76h.15V99.58h6.21v51.25Zm-22.31-13.17a13.53,13.53,0,0,0,2.12,4.42,10.32,10.32,0,0,0,3.65,3.09,11.22,11.22,0,0,0,5.22,1.15,10.82,10.82,0,0,0,5.33-1.22,10.62,10.62,0,0,0,3.58-3.2,13.26,13.26,0,0,0,2-4.49,21.42,21.42,0,0,0,0-10.37,13,13,0,0,0-2.08-4.48,10.58,10.58,0,0,0-3.69-3.12,11.67,11.67,0,0,0-5.48-1.19,10.81,10.81,0,0,0-5.33,1.22,9.82,9.82,0,0,0-3.5,3.23,13.89,13.89,0,0,0-1.9,4.59,23.89,23.89,0,0,0-.59,5.31A18.61,18.61,0,0,0,135.06,137.66Z"/><path class="cls-1" d="M202.8,148.46a17.32,17.32,0,0,1-10.66,3.16,19.71,19.71,0,0,1-7.85-1.44,15.41,15.41,0,0,1-5.59-4,16.9,16.9,0,0,1-3.4-6.17,29.22,29.22,0,0,1-1.28-7.82,22,22,0,0,1,1.32-7.75,18.4,18.4,0,0,1,3.69-6.1,16.73,16.73,0,0,1,5.62-4,17.44,17.44,0,0,1,7.12-1.44,15.72,15.72,0,0,1,8.36,2,16.47,16.47,0,0,1,5.33,5.2,20.36,20.36,0,0,1,2.77,6.89,29,29,0,0,1,.62,7.11H180.6a14.44,14.44,0,0,0,.59,4.63,10.23,10.23,0,0,0,5.84,6.57,13,13,0,0,0,5.33,1,10.87,10.87,0,0,0,6.46-1.8,8.66,8.66,0,0,0,3.32-5.46h6.13Q207,145.31,202.8,148.46Zm-1.5-23.83A10.44,10.44,0,0,0,199,121.3a10.69,10.69,0,0,0-7.63-3.05,11,11,0,0,0-4.35.83,10.1,10.1,0,0,0-3.32,2.26,10.87,10.87,0,0,0-2.19,3.34,12.51,12.51,0,0,0-.95,4.06h21.69A12.32,12.32,0,0,0,201.3,124.64Z"/><path class="cls-1" d="M247.63,99.58v19.6h.15a8.07,8.07,0,0,1,2-2.91,11.71,11.71,0,0,1,3-1.94,15.44,15.44,0,0,1,3.43-1.11,17.79,17.79,0,0,1,3.47-.36,16.68,16.68,0,0,1,6.21,1,10.22,10.22,0,0,1,4,2.8,10.34,10.34,0,0,1,2.15,4.27,22.66,22.66,0,0,1,.62,5.49v24.41h-6.21V125.71a7.3,7.3,0,0,0-2-5.45,7.67,7.67,0,0,0-5.62-2,12.85,12.85,0,0,0-4.93.86,9.26,9.26,0,0,0-3.47,2.44,10.53,10.53,0,0,0-2.08,3.7,14.84,14.84,0,0,0-.69,4.63v21h-6.21V99.58Z"/><path class="cls-1" d="M318.4,150.69a9,9,0,0,1-4.46.93,5.41,5.41,0,0,1-3.83-1.33q-1.42-1.33-1.42-4.35a14.85,14.85,0,0,1-6,4.35,20.92,20.92,0,0,1-12.2.75,11.38,11.38,0,0,1-4-1.79,8.63,8.63,0,0,1-2.67-3.2,10.62,10.62,0,0,1-1-4.77,10.76,10.76,0,0,1,1.1-5.17,9.46,9.46,0,0,1,2.89-3.27,13.31,13.31,0,0,1,4.09-1.9q2.3-.65,4.71-1.07t4.86-.76a27.58,27.58,0,0,0,4.05-.72,6.84,6.84,0,0,0,2.78-1.37,3.3,3.3,0,0,0,1-2.62,6,6,0,0,0-.76-3.23,5.23,5.23,0,0,0-2-1.87,8.18,8.18,0,0,0-2.7-.86,20.94,20.94,0,0,0-3-.22,13.31,13.31,0,0,0-6.57,1.47q-2.63,1.47-2.85,5.57h-6.21a13,13,0,0,1,1.46-5.82,11,11,0,0,1,3.5-3.84,14.88,14.88,0,0,1,5-2.12,26.82,26.82,0,0,1,6-.65,36.35,36.35,0,0,1,5.08.36,13.47,13.47,0,0,1,4.56,1.47,8.68,8.68,0,0,1,3.29,3.12,9.81,9.81,0,0,1,1.24,5.23v19.05a14,14,0,0,0,.25,3.15q.25,1,1.72,1a7.55,7.55,0,0,0,1.9-.29Zm-10.08-19a7.8,7.8,0,0,1-3.06,1.25q-1.9.4-4,.64t-4.2.57a15.89,15.89,0,0,0-3.8,1,6.92,6.92,0,0,0-2.74,2,5.63,5.63,0,0,0-1.06,3.61,4.84,4.84,0,0,0,.62,2.54,5.12,5.12,0,0,0,1.61,1.68,6.88,6.88,0,0,0,2.3.93,13,13,0,0,0,2.78.29,15,15,0,0,0,5.26-.82,11.13,11.13,0,0,0,3.58-2.07,8.21,8.21,0,0,0,2-2.72,6.75,6.75,0,0,0,.66-2.75Z"/><path class="cls-1" d="M349.66,120.18a9.54,9.54,0,0,0-6.28-1.94,11.74,11.74,0,0,0-5.62,1.22,10,10,0,0,0-3.61,3.23,13.44,13.44,0,0,0-1.94,4.63,24.72,24.72,0,0,0-.59,5.42,20.23,20.23,0,0,0,.62,5,13.32,13.32,0,0,0,1.94,4.34,9.69,9.69,0,0,0,3.43,3,10.39,10.39,0,0,0,5,1.15,10.28,10.28,0,0,0,7.19-2.37,10.64,10.64,0,0,0,3.18-6.68h6.35q-1,6.89-5.22,10.62t-11.43,3.73a20,20,0,0,1-7.63-1.36,14.79,14.79,0,0,1-5.55-3.88,16.71,16.71,0,0,1-3.36-6,24.57,24.57,0,0,1-1.13-7.64,26.88,26.88,0,0,1,1.1-7.79,18,18,0,0,1,3.32-6.32,15.59,15.59,0,0,1,5.59-4.23,18.56,18.56,0,0,1,7.82-1.54,23.28,23.28,0,0,1,6,.75,14.87,14.87,0,0,1,5,2.33,12.81,12.81,0,0,1,3.54,4,14.54,14.54,0,0,1,1.75,5.71h-6.43A9.26,9.26,0,0,0,349.66,120.18Z"/><path class="cls-1" d="M396,148.46a17.32,17.32,0,0,1-10.66,3.16,19.71,19.71,0,0,1-7.85-1.44,15.41,15.41,0,0,1-5.59-4,16.9,16.9,0,0,1-3.4-6.17,29.22,29.22,0,0,1-1.28-7.82,22,22,0,0,1,1.32-7.75,18.4,18.4,0,0,1,3.69-6.1,16.73,16.73,0,0,1,5.62-4,17.44,17.44,0,0,1,7.12-1.44,15.72,15.72,0,0,1,8.36,2,16.47,16.47,0,0,1,5.33,5.2,20.36,20.36,0,0,1,2.77,6.89,29,29,0,0,1,.62,7.11H373.75a14.44,14.44,0,0,0,.59,4.63,10.23,10.23,0,0,0,5.84,6.57,13,13,0,0,0,5.33,1,10.87,10.87,0,0,0,6.46-1.8,8.66,8.66,0,0,0,3.32-5.46h6.13Q400.19,145.31,396,148.46Zm-1.5-23.83a10.44,10.44,0,0,0-2.26-3.34,10.69,10.69,0,0,0-7.63-3.05,11,11,0,0,0-4.35.83,10.1,10.1,0,0,0-3.32,2.26,10.87,10.87,0,0,0-2.19,3.34,12.51,12.51,0,0,0-.95,4.06h21.69A12.32,12.32,0,0,0,394.45,124.64Z"/><path class="cls-1" d="M436.7,110.1a16.78,16.78,0,0,1,3.73-5.45,16,16,0,0,1,5.62-3.48,21.29,21.29,0,0,1,7.45-1.22,17.48,17.48,0,0,1,5.81.93,13.28,13.28,0,0,1,4.6,2.69,12.37,12.37,0,0,1,3,4.27,15.13,15.13,0,0,1,0,11.31,18.55,18.55,0,0,1-2.89,4.67,25.27,25.27,0,0,1-4.13,3.88A57.45,57.45,0,0,1,455,131q-2.56,1.54-5.11,2.94t-4.75,2.76q-1.24.79-2.52,1.72a21.61,21.61,0,0,0-4.49,4.41,10.4,10.4,0,0,0-1.46,2.62h26.95l-1.17,5.38H429.55a20.59,20.59,0,0,1,1.57-6.78,21.42,21.42,0,0,1,3.21-5.21,24.54,24.54,0,0,1,4.42-4.09q2.48-1.79,5.19-3.44t5.48-3.23a56,56,0,0,0,5.33-3.44q1.39-1.08,2.63-2.19a15.23,15.23,0,0,0,2.15-2.37,10.33,10.33,0,0,0,1.42-2.76,10.74,10.74,0,0,0,.51-3.45,8.3,8.3,0,0,0-2.34-6.31,8.83,8.83,0,0,0-6.35-2.23,10.79,10.79,0,0,0-4.68,1,10.59,10.59,0,0,0-3.47,2.58,11.9,11.9,0,0,0-2.23,3.81,16.07,16.07,0,0,0-.95,4.56h-6.57A24.75,24.75,0,0,1,436.7,110.1Z"/><path class="cls-1" d="M489.28,106.19,485.19,120l.15.14a13,13,0,0,1,4.31-2.12,17.71,17.71,0,0,1,4.82-.68,15.35,15.35,0,0,1,6.21,1.18,13.29,13.29,0,0,1,4.56,3.23,13.49,13.49,0,0,1,2.81,4.88,19,19,0,0,1,.95,6.07,22,22,0,0,1-1.39,7.79,16,16,0,0,1-4.45,6.42,19.1,19.1,0,0,1-6.35,3.66,23.32,23.32,0,0,1-7.3,1.08q-7.09,0-11.32-3.73t-4.24-10.7h6.57q0,9.12,9.35,9.12a13.21,13.21,0,0,0,5.4-1,10.91,10.91,0,0,0,3.91-2.87,12.92,12.92,0,0,0,2.41-4.27,15.73,15.73,0,0,0,.84-5.17q0-5-2.63-7.61t-7.67-2.66A11.41,11.41,0,0,0,486.8,124a9.21,9.21,0,0,0-3.87,3.62h-5.55l8-26.85h26.22l-1.1,5.38Z"/><path class="cls-1" d="M546,119.57a13.68,13.68,0,0,1,3.69-3.77,15.48,15.48,0,0,1,5-2.22,22.9,22.9,0,0,1,5.77-.72,30.65,30.65,0,0,1,5.26.43,13.49,13.49,0,0,1,4.38,1.51,8.34,8.34,0,0,1,3,2.91,8.69,8.69,0,0,1,1.13,4.63,16,16,0,0,1-.4,3.41q-.4,1.83-.76,3.34l-2.41,10.12q-.22,1.15-.62,2.58a10.17,10.17,0,0,0-.4,2.73,2.49,2.49,0,0,0,.51,1.8,1.8,1.8,0,0,0,1.31.5,3.14,3.14,0,0,0,1-.18l1-.32-.95,4.52a12.73,12.73,0,0,1-1.86.54,9.23,9.23,0,0,1-1.94.25,5.14,5.14,0,0,1-3.87-1.36,4.45,4.45,0,0,1-1-3.81l-.15-.14a13,13,0,0,1-4.89,3.95,18.52,18.52,0,0,1-7.74,1.36,17.92,17.92,0,0,1-4.49-.54,9.24,9.24,0,0,1-3.62-1.8,9,9,0,0,1-2.45-3.23,11.54,11.54,0,0,1-.91-4.85,10.17,10.17,0,0,1,1.79-6.39,11.3,11.3,0,0,1,4.56-3.48,23.1,23.1,0,0,1,6.14-1.61q3.35-.43,6.5-.72,2.48-.22,4.27-.47a9.87,9.87,0,0,0,3-.83,3.69,3.69,0,0,0,1.72-1.65,6.59,6.59,0,0,0,.55-2.94,3.85,3.85,0,0,0-.73-2.44,5.19,5.19,0,0,0-1.83-1.47,8.6,8.6,0,0,0-2.45-.76,16.62,16.62,0,0,0-2.59-.22,16.87,16.87,0,0,0-3.47.36,10.09,10.09,0,0,0-3.1,1.18,8.06,8.06,0,0,0-2.34,2.08,6.79,6.79,0,0,0-1.24,3h-6.21A12.79,12.79,0,0,1,546,119.57ZM547.74,145a8.74,8.74,0,0,0,4.71,1.29q7.37,0,10.59-4.88a12,12,0,0,0,2.08-4.52q.55-2.44,1.2-5h-.15a8.54,8.54,0,0,1-3.32,1.33q-2,.39-4.27.61t-4.56.54a18.27,18.27,0,0,0-4.13,1,7.67,7.67,0,0,0-3,2,5.68,5.68,0,0,0-1.24,3.7A4.27,4.27,0,0,0,547.74,145Z"/><path class="cls-1" d="M594.59,113.72l-1.17,5.6h.15a14.61,14.61,0,0,1,5.92-4.85,18.11,18.11,0,0,1,7.52-1.61q5.33,0,7.92,2.3t2.59,7.25a22.14,22.14,0,0,1-.29,3.16q-.3,1.94-.8,4.09l-4.6,21.17h-6.21l4.82-21.68c0-.38.12-.83.22-1.33s.19-1,.29-1.58.18-1.08.25-1.58a9,9,0,0,0,.11-1.26,4.36,4.36,0,0,0-1.9-3.91,8.32,8.32,0,0,0-4.68-1.26,11.54,11.54,0,0,0-5.07,1.22,14.43,14.43,0,0,0-4.27,3.09,10.08,10.08,0,0,0-2.63,3.48,25.34,25.34,0,0,0-1.54,4.27l-4.38,20.53h-6.13l7.89-37.11Zm1.31-8.4a12.88,12.88,0,0,1,1.43-2.51,7.53,7.53,0,0,1,2-1.9,5,5,0,0,1,2.77-.75,7.4,7.4,0,0,1,2.85.57c.92.39,1.85.79,2.77,1.22s1.78.76,2.56,1.11a3.72,3.72,0,0,0,2.12.39,2.89,2.89,0,0,0,2.38-.86,13.67,13.67,0,0,0,1.35-2.08h3.72q-.44,1.37-1,2.76a10.65,10.65,0,0,1-1.46,2.51,7.49,7.49,0,0,1-2.08,1.83,5.53,5.53,0,0,1-2.89.72,7.58,7.58,0,0,1-2.66-.57q-1.5-.58-2.92-1.22t-2.66-1.15a3.85,3.85,0,0,0-2-.36,2.83,2.83,0,0,0-2.23.86,6.33,6.33,0,0,0-1.2,2.08h-3.8Q595.32,106.69,595.9,105.32Z"/><path class="cls-1" d="M627.19,127.43a22.57,22.57,0,0,1,4.16-7.46A20.63,20.63,0,0,1,638,114.8a19.69,19.69,0,0,1,8.87-1.94q7.67,0,11.69,3.91t4,11.45a27.92,27.92,0,0,1-1.39,8.76,22.71,22.71,0,0,1-4.09,7.5,20.09,20.09,0,0,1-6.57,5.21,19.52,19.52,0,0,1-8.84,1.94,18.37,18.37,0,0,1-6.68-1.15,14.28,14.28,0,0,1-5-3.2,13.88,13.88,0,0,1-3.14-4.88,17,17,0,0,1-1.1-6.21A27.38,27.38,0,0,1,627.19,127.43Zm7.41,16.08q2.63,2.8,7.74,2.8a10.65,10.65,0,0,0,6-1.72,16,16,0,0,0,4.38-4.34,20.29,20.29,0,0,0,2.7-5.71,20.58,20.58,0,0,0,.91-5.81,14,14,0,0,0-.59-4.09A8.76,8.76,0,0,0,654,121.3a8.93,8.93,0,0,0-3.1-2.23,10.86,10.86,0,0,0-4.42-.83,11.45,11.45,0,0,0-6.28,1.72,15.87,15.87,0,0,0-4.53,4.34,19.51,19.51,0,0,0-2.74,5.78,21.7,21.7,0,0,0-.91,6A10.37,10.37,0,0,0,634.61,143.51Z"/><path class="cls-1" d="M693.1,119.86a9.64,9.64,0,0,0-5.62-1.62,19.62,19.62,0,0,0-2.85.22,9.12,9.12,0,0,0-2.59.76,5.28,5.28,0,0,0-1.86,1.44,3.57,3.57,0,0,0-.73,2.33,3.21,3.21,0,0,0,.84,2.22,8.67,8.67,0,0,0,2.26,1.72,25.3,25.3,0,0,0,3.21,1.47l3.61,1.4q1.9.79,3.69,1.72a17,17,0,0,1,3.18,2.12,9.78,9.78,0,0,1,2.26,2.8,7.77,7.77,0,0,1,.88,3.77,9.65,9.65,0,0,1-1.39,5.28,11.21,11.21,0,0,1-3.58,3.55,15.77,15.77,0,0,1-4.93,2,25.27,25.27,0,0,1-5.51.61,28.21,28.21,0,0,1-6.06-.61,12.84,12.84,0,0,1-4.79-2,9.93,9.93,0,0,1-3.17-3.84,13.64,13.64,0,0,1-1.17-6h6.14a6.06,6.06,0,0,0,.62,3.41,5.83,5.83,0,0,0,2.12,2.22A9.45,9.45,0,0,0,680.8,146a18.85,18.85,0,0,0,3.76.36,16.66,16.66,0,0,0,3.07-.29,9.27,9.27,0,0,0,2.77-1,5.92,5.92,0,0,0,2-1.76,4.46,4.46,0,0,0,.77-2.66,3.36,3.36,0,0,0-.88-2.33,9.09,9.09,0,0,0-2.26-1.76,22.9,22.9,0,0,0-3.18-1.47c-1.19-.46-2.4-.95-3.61-1.47s-2.5-1-3.69-1.58a15.55,15.55,0,0,1-3.21-2,9.18,9.18,0,0,1-2.26-2.76,7.69,7.69,0,0,1-.84-3.66,8.75,8.75,0,0,1,1.2-4.59,10.48,10.48,0,0,1,3.17-3.34,15.61,15.61,0,0,1,4.49-2,18.65,18.65,0,0,1,5.15-.72,22.27,22.27,0,0,1,5.19.61,13.28,13.28,0,0,1,4.56,2,10.59,10.59,0,0,1,3.25,3.66,11.26,11.26,0,0,1,1.24,5.49h-6.21A5.11,5.11,0,0,0,693.1,119.86Z"/><path class="cls-1" d="M721.58,142.87v8h-8.11v-8Z"/><path class="cls-1" d="M39.06,4.09V9.93H10V26.51H37.09v5.84H10v18H39.28v5.84H3.06V4.09Z"/><path class="cls-1" d="M46.59,18.48h8L63.6,31.7,73,18.48h7.45l-13,17.38L82.08,56.23h-8L63.6,40.6,53.08,56.23H45.56L59.73,36.37Z"/><path class="cls-1" d="M96.75,18.48v5.11h.15A9.33,9.33,0,0,1,101.72,19,18,18,0,0,1,109,17.6a17.06,17.06,0,0,1,7.63,1.61A15.61,15.61,0,0,1,122,23.55a19.24,19.24,0,0,1,3.25,6.32,25.88,25.88,0,0,1,1.1,7.6,26.7,26.7,0,0,1-1.06,7.6,17.93,17.93,0,0,1-3.21,6.24,15.19,15.19,0,0,1-5.41,4.2A17.52,17.52,0,0,1,109.1,57a18.77,18.77,0,0,1-3.11-.29,17.25,17.25,0,0,1-3.39-.95A13.33,13.33,0,0,1,99.42,54a10.08,10.08,0,0,1-2.52-2.81h-.15V70.62H90.55V18.48Zm22.31,13.4a13.78,13.78,0,0,0-2.12-4.49,10.39,10.39,0,0,0-3.65-3.14,11.13,11.13,0,0,0-5.23-1.17,10.25,10.25,0,0,0-8.91,4.49,13.77,13.77,0,0,0-2,4.56,22.17,22.17,0,0,0,0,10.55,13.43,13.43,0,0,0,2.08,4.56A10.67,10.67,0,0,0,103,50.43a11.55,11.55,0,0,0,5.48,1.2,10.62,10.62,0,0,0,5.36-1.24,10,10,0,0,0,3.47-3.29,14.32,14.32,0,0,0,1.89-4.67,24.54,24.54,0,0,0,.59-5.4A19.11,19.11,0,0,0,119.06,31.88Z"/><path class="cls-1" d="M163.28,53.82A17.14,17.14,0,0,1,152.62,57a19.38,19.38,0,0,1-7.85-1.46,15.44,15.44,0,0,1-5.59-4.09,17.33,17.33,0,0,1-3.39-6.28,30.07,30.07,0,0,1-1.28-8,22.63,22.63,0,0,1,1.32-7.89,18.79,18.79,0,0,1,3.68-6.21,16.75,16.75,0,0,1,5.63-4.09,17.21,17.21,0,0,1,7.12-1.46,15.51,15.51,0,0,1,8.36,2.08,16.54,16.54,0,0,1,5.33,5.3,20.85,20.85,0,0,1,2.77,7,29.86,29.86,0,0,1,.63,7.23H141.08a15,15,0,0,0,.58,4.71,10.67,10.67,0,0,0,2.12,3.94,10.45,10.45,0,0,0,3.73,2.74,12.81,12.81,0,0,0,5.33,1,10.75,10.75,0,0,0,6.46-1.83,8.84,8.84,0,0,0,3.33-5.55h6.13Q167.52,50.61,163.28,53.82Zm-1.5-24.25a10.57,10.57,0,0,0-2.26-3.4,11.16,11.16,0,0,0-12-2.26,10,10,0,0,0-3.33,2.3,11.15,11.15,0,0,0-2.19,3.4,13,13,0,0,0-.95,4.13h21.69A12.72,12.72,0,0,0,161.78,29.58Z"/><path class="cls-1" d="M184.31,18.48v8h.15A16.82,16.82,0,0,1,190,19.65a14,14,0,0,1,8.33-2v6.57a17.54,17.54,0,0,0-6.35,1,10,10,0,0,0-4.24,3A12.31,12.31,0,0,0,185.41,33a25.89,25.89,0,0,0-.73,6.46v16.8h-6.21V18.48Z"/><path class="cls-1" d="M222.07,18.48V24h-7.52V47.4a6.81,6.81,0,0,0,.18,1.75,1.82,1.82,0,0,0,.69,1,3.06,3.06,0,0,0,1.43.47,20.69,20.69,0,0,0,2.37.11h2.85v5.48h-4.75a22.37,22.37,0,0,1-4.13-.33,6.07,6.07,0,0,1-2.77-1.2,5.17,5.17,0,0,1-1.57-2.49,14.36,14.36,0,0,1-.51-4.23V24h-6.43V18.48h6.43V7.16h6.21V18.48Z"/><path class="cls-1" d="M231,29.61a17.59,17.59,0,0,1,3.51-6.28,16.49,16.49,0,0,1,5.77-4.2,21.15,21.15,0,0,1,15.81,0,16.65,16.65,0,0,1,5.74,4.2,17.68,17.68,0,0,1,3.51,6.28,25.2,25.2,0,0,1,1.17,7.78,24.87,24.87,0,0,1-1.17,7.74,17.73,17.73,0,0,1-3.51,6.24,16.21,16.21,0,0,1-5.74,4.16,21.59,21.59,0,0,1-15.81,0,16.06,16.06,0,0,1-5.77-4.16A17.63,17.63,0,0,1,231,45.13a24.87,24.87,0,0,1-1.17-7.74A25.2,25.2,0,0,1,231,29.61Zm6.32,13.87a12.64,12.64,0,0,0,2.52,4.45,10.84,10.84,0,0,0,3.76,2.74,11.44,11.44,0,0,0,9.13,0,11,11,0,0,0,3.76-2.74A12.83,12.83,0,0,0,259,43.49a18.81,18.81,0,0,0,.91-6.1,18.85,18.85,0,0,0-.91-6.1,13.32,13.32,0,0,0-2.52-4.49A10.85,10.85,0,0,0,252.7,24a11.44,11.44,0,0,0-9.13,0,10.74,10.74,0,0,0-3.76,2.77,13.12,13.12,0,0,0-2.52,4.49,18.68,18.68,0,0,0-.92,6.1A18.65,18.65,0,0,0,237.29,43.49Z"/><path class="cls-1" d="M281.44,47.8a6.6,6.6,0,0,0,2.3,2.26A10.34,10.34,0,0,0,287,51.27a18.36,18.36,0,0,0,3.68.36,22.84,22.84,0,0,0,3.07-.22,11.21,11.21,0,0,0,3-.8,5.54,5.54,0,0,0,2.23-1.72,4.57,4.57,0,0,0,.87-2.88,4.13,4.13,0,0,0-1.83-3.65,15.5,15.5,0,0,0-4.56-2q-2.73-.77-5.95-1.39a30.77,30.77,0,0,1-6-1.75A12.3,12.3,0,0,1,276.91,34a8.24,8.24,0,0,1-1.83-5.7,9,9,0,0,1,1.28-4.89,10.41,10.41,0,0,1,3.28-3.32,15.12,15.12,0,0,1,4.53-1.9,20.79,20.79,0,0,1,5-.62,29.66,29.66,0,0,1,5.91.55,13.67,13.67,0,0,1,4.78,1.9,9.84,9.84,0,0,1,3.33,3.65,14,14,0,0,1,1.46,5.73h-6.21a6.3,6.3,0,0,0-1-3,6.18,6.18,0,0,0-2-1.94,9.31,9.31,0,0,0-2.74-1.06,14.11,14.11,0,0,0-3-.33,18.58,18.58,0,0,0-2.82.22,9.55,9.55,0,0,0-2.59.77,5.29,5.29,0,0,0-1.9,1.46,3.7,3.7,0,0,0-.73,2.37,3.49,3.49,0,0,0,1.13,2.67,8.93,8.93,0,0,0,2.88,1.75,24.85,24.85,0,0,0,3.94,1.17q2.18.48,4.38,1t4.56,1.24a15,15,0,0,1,3.94,1.94,9.55,9.55,0,0,1,2.77,3,8.92,8.92,0,0,1,1.06,4.53,10.54,10.54,0,0,1-1.42,5.7,11.11,11.11,0,0,1-3.73,3.65A15.58,15.58,0,0,1,296,56.49a30.53,30.53,0,0,1-5.74.55,26.47,26.47,0,0,1-6-.66,14.66,14.66,0,0,1-5-2.15,11,11,0,0,1-3.51-3.94,13.71,13.71,0,0,1-1.46-6h6.21A6.92,6.92,0,0,0,281.44,47.8Z"/><path class="cls-1" d="M366.08,53.82A17.13,17.13,0,0,1,355.42,57a19.39,19.39,0,0,1-7.85-1.46A15.41,15.41,0,0,1,342,51.49a17.34,17.34,0,0,1-3.4-6.28,30.32,30.32,0,0,1-1.28-8,22.77,22.77,0,0,1,1.32-7.89,18.81,18.81,0,0,1,3.69-6.21,16.67,16.67,0,0,1,5.62-4.09A17.21,17.21,0,0,1,355,17.6a15.49,15.49,0,0,1,8.36,2.08,16.56,16.56,0,0,1,5.33,5.3,21,21,0,0,1,2.77,7,30.15,30.15,0,0,1,.62,7.23H343.88a14.85,14.85,0,0,0,.59,4.71,10.58,10.58,0,0,0,2.12,3.94,10.43,10.43,0,0,0,3.72,2.74,12.86,12.86,0,0,0,5.33,1,10.75,10.75,0,0,0,6.46-1.83,8.84,8.84,0,0,0,3.32-5.55h6.14Q370.31,50.61,366.08,53.82Zm-1.49-24.25A10.49,10.49,0,0,0,359,23.92a10.58,10.58,0,0,0-4.27-.84,10.81,10.81,0,0,0-4.35.84,10,10,0,0,0-3.32,2.3,10.92,10.92,0,0,0-2.19,3.4,12.79,12.79,0,0,0-1,4.13h21.69A12.72,12.72,0,0,0,364.58,29.58Z"/><path class="cls-1" d="M387.33,18.48v6h.15q3.87-6.86,12.27-6.86a16.38,16.38,0,0,1,6.21,1,10.24,10.24,0,0,1,4,2.85,10.67,10.67,0,0,1,2.15,4.34,23.46,23.46,0,0,1,.62,5.59V56.23h-6.21V30.67a7.49,7.49,0,0,0-2-5.55,7.59,7.59,0,0,0-5.62-2,12.6,12.6,0,0,0-4.93.88,9.19,9.19,0,0,0-3.47,2.48,10.63,10.63,0,0,0-2.08,3.76,15.35,15.35,0,0,0-.69,4.71V56.23h-6.21V18.48Z"/><path class="cls-1" d="M472.11,4.09q7.89,0,11.94,4.05t4,11.36q0,7.3-4,11.39t-11.94,4H456.19V56.23h-6.94V4.09Zm-2.34,25q5.92.08,8.65-2.41t2.74-7.16q0-4.67-2.74-7.12t-8.65-2.45H456.19V29.06Z"/><path class="cls-1" d="M531.92,56.09a8.8,8.8,0,0,1-4.45.95,5.36,5.36,0,0,1-3.84-1.35q-1.42-1.35-1.42-4.42a14.9,14.9,0,0,1-6,4.42,20.55,20.55,0,0,1-12.2.76,11.24,11.24,0,0,1-4-1.82,8.8,8.8,0,0,1-2.67-3.25,11,11,0,0,1-1-4.86,11.12,11.12,0,0,1,1.09-5.26,9.59,9.59,0,0,1,2.89-3.32A13.19,13.19,0,0,1,504.5,36a47.93,47.93,0,0,1,4.71-1.1q2.55-.51,4.86-.77a26.75,26.75,0,0,0,4.05-.73A6.73,6.73,0,0,0,520.9,32a3.39,3.39,0,0,0,1-2.66,6.21,6.21,0,0,0-.76-3.29,5.21,5.21,0,0,0-2-1.9,8,8,0,0,0-2.7-.88,20.5,20.5,0,0,0-3-.22,13.13,13.13,0,0,0-6.57,1.5q-2.63,1.5-2.85,5.66h-6.2a13.44,13.44,0,0,1,1.46-5.91,11.1,11.1,0,0,1,3.51-3.91,14.68,14.68,0,0,1,5-2.15,26.33,26.33,0,0,1,6-.66A35.41,35.41,0,0,1,519,18a13.19,13.19,0,0,1,4.56,1.5,8.76,8.76,0,0,1,3.29,3.17,10.15,10.15,0,0,1,1.24,5.32V47.33a14.52,14.52,0,0,0,.25,3.21c.17.68.75,1,1.72,1a7.55,7.55,0,0,0,1.9-.29ZM521.84,36.73A7.7,7.7,0,0,1,518.78,38c-1.27.27-2.59.48-4,.65s-2.79.36-4.2.58a15.58,15.58,0,0,0-3.79,1.05,6.92,6.92,0,0,0-2.74,2.07A5.8,5.8,0,0,0,503,46a5,5,0,0,0,.62,2.58,5.17,5.17,0,0,0,1.61,1.71,6.75,6.75,0,0,0,2.3.94,12.79,12.79,0,0,0,2.77.29,14.84,14.84,0,0,0,5.26-.83,11.11,11.11,0,0,0,3.57-2.11,8.25,8.25,0,0,0,2-2.76,7,7,0,0,0,.66-2.8Z"/><path class="cls-1" d="M556.75,18.48V24h-7.52V47.4a6.81,6.81,0,0,0,.18,1.75,1.82,1.82,0,0,0,.69,1,3.06,3.06,0,0,0,1.43.47,20.69,20.69,0,0,0,2.37.11h2.85v5.48H552a22.37,22.37,0,0,1-4.13-.33,6.07,6.07,0,0,1-2.77-1.2,5.17,5.17,0,0,1-1.57-2.49A14.36,14.36,0,0,1,543,48V24H536.6V18.48H543V7.16h6.21V18.48Z"/><path class="cls-1" d="M565.66,29.61a17.59,17.59,0,0,1,3.51-6.28,16.49,16.49,0,0,1,5.77-4.2,21.15,21.15,0,0,1,15.81,0,16.65,16.65,0,0,1,5.74,4.2A17.68,17.68,0,0,1,600,29.61a25.2,25.2,0,0,1,1.17,7.78A24.87,24.87,0,0,1,600,45.13a17.73,17.73,0,0,1-3.51,6.24,16.21,16.21,0,0,1-5.74,4.16,21.59,21.59,0,0,1-15.81,0,16.06,16.06,0,0,1-5.77-4.16,17.63,17.63,0,0,1-3.51-6.24,24.87,24.87,0,0,1-1.17-7.74A25.2,25.2,0,0,1,565.66,29.61ZM572,43.49a12.64,12.64,0,0,0,2.52,4.45,10.84,10.84,0,0,0,3.76,2.74,11.44,11.44,0,0,0,9.13,0,11,11,0,0,0,3.76-2.74,12.83,12.83,0,0,0,2.52-4.45,18.81,18.81,0,0,0,.91-6.1,18.85,18.85,0,0,0-.91-6.1,13.32,13.32,0,0,0-2.52-4.49A10.85,10.85,0,0,0,587.39,24a11.44,11.44,0,0,0-9.13,0,10.74,10.74,0,0,0-3.76,2.77A13.12,13.12,0,0,0,572,31.29a18.68,18.68,0,0,0-.92,6.1A18.65,18.65,0,0,0,572,43.49Z"/><path class="cls-1" d="M617.94,4.09V56.23h-6.2V4.09Z"/><path class="cls-1" d="M629.63,29.61a17.68,17.68,0,0,1,3.51-6.28,16.57,16.57,0,0,1,5.77-4.2,21.15,21.15,0,0,1,15.81,0,16.57,16.57,0,0,1,5.73,4.2A17.59,17.59,0,0,1,664,29.61a25.2,25.2,0,0,1,1.17,7.78A24.87,24.87,0,0,1,664,45.13a17.63,17.63,0,0,1-3.51,6.24,16.14,16.14,0,0,1-5.73,4.16,21.59,21.59,0,0,1-15.81,0,16.14,16.14,0,0,1-5.77-4.16,17.73,17.73,0,0,1-3.51-6.24,24.87,24.87,0,0,1-1.17-7.74A25.2,25.2,0,0,1,629.63,29.61Zm6.32,13.87a12.83,12.83,0,0,0,2.52,4.45,10.89,10.89,0,0,0,3.76,2.74,11.44,11.44,0,0,0,9.13,0,10.89,10.89,0,0,0,3.76-2.74,12.74,12.74,0,0,0,2.52-4.45,18.81,18.81,0,0,0,.92-6.1,18.84,18.84,0,0,0-.92-6.1,13.22,13.22,0,0,0-2.52-4.49A10.8,10.8,0,0,0,651.35,24a11.44,11.44,0,0,0-9.13,0,10.8,10.8,0,0,0-3.76,2.77,13.32,13.32,0,0,0-2.52,4.49,18.85,18.85,0,0,0-.91,6.1A18.81,18.81,0,0,0,635.94,43.49Z"/><path class="cls-1" d="M703.68,66.9q-4.23,4.6-13.29,4.6a25.53,25.53,0,0,1-5.36-.59,16.51,16.51,0,0,1-5-1.9,11.56,11.56,0,0,1-3.68-3.44,9.72,9.72,0,0,1-1.61-5.18H681A4.59,4.59,0,0,0,682,63.24a7.82,7.82,0,0,0,2.41,1.9,11.73,11.73,0,0,0,3.11,1.06,16.76,16.76,0,0,0,3.21.33,11.52,11.52,0,0,0,5.19-1.06,9.71,9.71,0,0,0,3.5-2.92,12,12,0,0,0,2-4.49,25.2,25.2,0,0,0,.62-5.77V49.8h-.15A10.42,10.42,0,0,1,697.07,55a15.09,15.09,0,0,1-6.9,1.64,16.62,16.62,0,0,1-7.37-1.53,15.46,15.46,0,0,1-5.26-4.13,17.58,17.58,0,0,1-3.17-6.06,25.06,25.06,0,0,1-1.06-7.34,28.76,28.76,0,0,1,.88-6.9,18.76,18.76,0,0,1,2.92-6.43,16,16,0,0,1,5.41-4.75,16.79,16.79,0,0,1,8.25-1.86,14,14,0,0,1,6.57,1.57A11,11,0,0,1,702,23.88h.07v-5.4h5.84V53Q707.92,62.29,703.68,66.9Zm-7.92-17a10.17,10.17,0,0,0,3.47-3.36,15.21,15.21,0,0,0,1.94-4.71,22.88,22.88,0,0,0,.62-5.26,20.74,20.74,0,0,0-.58-4.89,13.66,13.66,0,0,0-1.86-4.35,9.69,9.69,0,0,0-3.32-3.1,9.91,9.91,0,0,0-5-1.17,10.7,10.7,0,0,0-5.11,1.13,9.9,9.9,0,0,0-3.47,3,12.75,12.75,0,0,0-2,4.38,21,21,0,0,0-.63,5.18,25.62,25.62,0,0,0,.52,5.11,14.54,14.54,0,0,0,1.75,4.64,9.87,9.87,0,0,0,3.29,3.36,9.46,9.46,0,0,0,5.11,1.28A10.07,10.07,0,0,0,695.76,49.91Z"/><path class="cls-1" d="M734.13,0l-10.3,11.83h-4.67l7-11.83ZM720.55,56.23h6.2V18.48h-6.2Z"/><path class="cls-1" d="M772.76,56.09a8.8,8.8,0,0,1-4.45.95,5.36,5.36,0,0,1-3.84-1.35q-1.42-1.35-1.42-4.42a14.9,14.9,0,0,1-6,4.42,20.55,20.55,0,0,1-12.2.76,11.24,11.24,0,0,1-4-1.82,8.8,8.8,0,0,1-2.67-3.25,11,11,0,0,1-1-4.86,11.12,11.12,0,0,1,1.09-5.26,9.59,9.59,0,0,1,2.89-3.32A13.19,13.19,0,0,1,745.34,36a47.93,47.93,0,0,1,4.71-1.1q2.55-.51,4.86-.77a26.75,26.75,0,0,0,4.05-.73A6.73,6.73,0,0,0,761.74,32a3.39,3.39,0,0,0,1-2.66,6.21,6.21,0,0,0-.76-3.29,5.21,5.21,0,0,0-2-1.9,8,8,0,0,0-2.7-.88,20.5,20.5,0,0,0-3-.22,13.13,13.13,0,0,0-6.57,1.5q-2.63,1.5-2.85,5.66h-6.2a13.44,13.44,0,0,1,1.46-5.91,11.1,11.1,0,0,1,3.51-3.91,14.68,14.68,0,0,1,5-2.15,26.33,26.33,0,0,1,6-.66,35.41,35.41,0,0,1,5.07.36,13.19,13.19,0,0,1,4.56,1.5,8.76,8.76,0,0,1,3.29,3.17,10.15,10.15,0,0,1,1.24,5.32V47.33a14.52,14.52,0,0,0,.25,3.21c.17.68.75,1,1.72,1a7.55,7.55,0,0,0,1.9-.29ZM762.68,36.73A7.7,7.7,0,0,1,759.62,38c-1.27.27-2.59.48-4,.65s-2.79.36-4.2.58a15.58,15.58,0,0,0-3.79,1.05,6.92,6.92,0,0,0-2.74,2.07A5.8,5.8,0,0,0,743.84,46a5,5,0,0,0,.62,2.58,5.17,5.17,0,0,0,1.61,1.71,6.75,6.75,0,0,0,2.3.94,12.79,12.79,0,0,0,2.77.29,14.84,14.84,0,0,0,5.26-.83A11.11,11.11,0,0,0,760,48.62a8.25,8.25,0,0,0,2-2.76,7,7,0,0,0,.66-2.8Z"/></svg>