<?xml version="1.0" encoding="utf-8"?>
<!-- Generator: Adobe Illustrator 23.0.4, SVG Export Plug-In . SVG Version: 6.00 Build 0)  -->
<svg version="1.1" id="Capa_1" xmlns="http://www.w3.org/2000/svg" xmlns:xlink="http://www.w3.org/1999/xlink" x="0px" y="0px"
	 viewBox="0 0 158.2 43.5" style="enable-background:new 0 0 158.2 43.5;" xml:space="preserve">
<style type="text/css">
	.st0{fill:#FFFFFF;}
</style>
<g>
	<polygon class="st0" points="129.8,9.5 127.2,6.8 132.9,1.1 135.4,3.9 	"/>
	<path class="st0" d="M52.5,14l3.7,0l0,4.4c1-2.1,2.2-3.7,3.6-4.7c4.6-3.4,7.7-2,8.7-1.2c2,1.4,2.8,4.2,2.1,7c-1,4-5.1,8.6-13.7,9.9
		c-0.1,1-0.3,2-0.4,3.1c-0.2,2.2-0.3,4.3-0.4,6.1l0,4.8l-3.7,0 M65.4,15.3c-0.8,0-2,0.4-3.5,1.5c-1.8,1.3-3.2,4.3-4.2,8.5
		c4.1-0.9,8.4-3,9.4-6.8c0.3-1.3,0.1-2.4-0.6-2.9C66.2,15.4,65.8,15.3,65.4,15.3z"/>
	<path class="st0" d="M97.6,29.8l-3.7,0l0-17.4l3.7,0l0,4.2c0.3-0.5,0.7-1.1,1.1-1.6c4.3-5.5,10.9-7.1,11.2-7.2l0.8,3.7
		c-0.1,0-5.7,1.4-9.2,5.9C97.7,22.3,97.6,29.7,97.6,29.8z"/>
	<path class="st0" d="M149,29.5c-0.9,0-1.8-0.2-2.5-0.7c-3.1-1.9-3.6-7-1.1-11.5c1.1-2,2.7-3.7,4.5-4.6c2-1.1,4-1.1,5.6-0.1
		c3.1,1.9,3.6,7,1.1,11.5l0,0C154.6,27.5,151.7,29.5,149,29.5z M152.9,15.7c-0.4,0-0.9,0.1-1.4,0.4c-1.1,0.6-2.2,1.7-3,3.1
		c-1.5,2.8-1.4,5.6-0.2,6.3c1.1,0.7,3.6-0.6,5.1-3.4l0,0c1.5-2.8,1.4-5.6,0.2-6.3C153.4,15.7,153.2,15.7,152.9,15.7z"/>
	<path class="st0" d="M123.2,13.6l0,9.9c0,0.1,0.1,0.9,0.4,1.6c0.4,0.8,0.9,1.2,1.8,1.2c1.3,0,1.7-0.6,2-1.1
		c0.3-0.6,0.3-1.3,0.3-1.3l0-11.8l3.7,0l0,11.8c0,2.5-1.6,6.3-6,6.3c-3.8,0-5.5-3.2-5.8-5.7c-0.7,1-1.6,1.9-2.6,2.7
		c-4.2,3.5-7,2.3-8.1,1.6c-2-1.3-2.8-4-2.2-6.8c0.9-4.1,5.1-8.9,14-9.8c0,0,1.5-0.1,2.5-0.1 M119.2,16.1c-5.7,1.1-8.4,4-8.9,6.6
		c-0.3,1.2,0,2.3,0.6,2.7c0.6,0.4,1.9,0.3,3.9-1.3C117.6,21.7,118.7,18.6,119.2,16.1z"/>
	<path class="st0" d="M89.3,29.7l-3.7,0l0-5.3c-0.7,0.9-1.5,1.8-2.5,2.7c-4.2,3.5-7,2.3-8.1,1.6c-2-1.3-2.8-4-2.2-6.8
		c0.9-4.1,5.1-8.9,14-9.8c0,0,1.5-0.1,2.5-0.1 M85.3,16.1c-7.4,1.4-8.7,5.7-8.9,6.6c-0.3,1.2,0,2.3,0.6,2.7c0.6,0.4,1.9,0.3,3.9-1.3
		C83.6,21.7,84.8,18.5,85.3,16.1z"/>
	<path class="st0" d="M40.3,13.5l0,9.9c0,0.1,0.1,0.9,0.4,1.6c0.4,0.8,0.9,1.2,1.8,1.2c1.3,0,1.7-0.6,2-1.1c0.3-0.6,0.3-1.3,0.3-1.3
		l0-21.7l3.7,0l0,21.7c0,2.5-1.6,6.3-6,6.3c-3.8,0-5.5-3.2-5.8-5.7c-0.7,1-1.6,1.9-2.6,2.7c-4.2,3.5-7,2.3-8.1,1.6
		c-2-1.3-2.8-4-2.2-6.8c0.9-4.1,5.1-8.9,14-9.8c0,0,1.5-0.1,2.5-0.1 M36.4,16c-5.7,1.1-8.4,4-8.9,6.6c-0.3,1.2,0,2.3,0.6,2.7
		c0.6,0.4,1.9,0.3,3.9-1.3C34.7,21.6,35.9,18.5,36.4,16z"/>
	<path class="st0" d="M12.5,29.5c-3.8,0-6.9-4.8-9.6-15C1,7.6,0,0.9,0,0.6L3.6,0c0,0.1,1,6.8,2.8,13.4c3.2,11.9,5.8,12.2,6.1,12.2
		c0.3,0,2.9-0.3,6.2-12.2C20.5,6.8,21.5,0.1,21.5,0l3.6,0.6c0,0.3-1,7-2.9,13.9C19.4,24.7,16.3,29.5,12.5,29.5z"/>
	<path class="st0" d="M132.5,43.5C132.5,43.5,132.5,43.5,132.5,43.5l0.1-3.8l0,0c0,0,1.1,0,2.2-0.7c1.4-1,2.2-2.7,2.3-5.3
		c0.1-2.1-0.4-4.3-0.8-6.2c-0.5-2.2-1-4.6-0.9-7.2c0.5-9.7,8.1-9.6,8.2-9.6l-0.1,3.8l0,0c0,0-1.1,0-2.2,0.7c-1.4,1-2.2,2.7-2.3,5.3
		c-0.1,2.1,0.4,4.3,0.8,6.2c0.5,2.2,1,4.6,0.9,7.2C140.2,43.4,132.8,43.5,132.5,43.5z"/>
</g>
<g>
	<polygon class="st0" points="135.4,3.9 132.9,1.1 127.2,6.8 129.8,9.5 	"/>
	<path class="st0" d="M68.5,12.5c-1.1-0.8-4.1-2.2-8.7,1.2c-1.4,1-2.6,2.6-3.6,4.7l0-4.4l-3.7,0l0,29.4l3.7,0l0-4.8
		c0.1-1.8,0.2-3.9,0.4-6.1c0.1-1.1,0.2-2.1,0.4-3.1c8.6-1.2,12.7-5.9,13.7-9.9C71.2,16.6,70.4,13.9,68.5,12.5z M67,18.5
		c-0.9,3.8-5.2,5.9-9.4,6.8c1-4.3,2.4-7.2,4.2-8.5c1.5-1.1,2.7-1.5,3.5-1.5c0.4,0,0.8,0.1,1,0.3C67.1,16.1,67.3,17.3,67,18.5z"/>
	<path class="st0" d="M109.9,7.7c-0.3,0.1-6.9,1.7-11.2,7.2c-0.4,0.5-0.8,1.1-1.1,1.6l0-4.2l-3.7,0l0,17.4l3.7,0
		c0-0.1,0.1-7.5,4-12.4c3.5-4.5,9.1-5.9,9.2-5.9L109.9,7.7z"/>
	<path class="st0" d="M155.5,12.5c-1.6-1-3.7-0.9-5.6,0.1c-1.7,0.9-3.3,2.6-4.5,4.6c-2.5,4.6-2.1,9.6,1.1,11.5
		c0.8,0.5,1.6,0.7,2.5,0.7c2.7,0,5.7-2,7.6-5.4C159.1,19.5,158.6,14.4,155.5,12.5z M153.4,22.2c-1.5,2.8-4,4.1-5.1,3.4
		c-1.1-0.7-1.3-3.5,0.2-6.3c0.8-1.4,1.9-2.5,3-3.1c0.5-0.3,1-0.4,1.4-0.4c0.3,0,0.5,0.1,0.7,0.2C154.8,16.5,154.9,19.4,153.4,22.2z"
		/>
	<path class="st0" d="M127.8,23.8c0,0,0,0.7-0.3,1.3c-0.2,0.5-0.7,1.1-2,1.1c-0.9,0-1.4-0.3-1.8-1.2c-0.3-0.7-0.4-1.5-0.4-1.6l0-9.9
		l0-1.7c-1,0-2.5,0.1-2.5,0.1c-8.9,0.9-13.1,5.6-14,9.8c-0.6,2.9,0.2,5.5,2.2,6.8c1,0.7,3.9,1.9,8.1-1.6c1-0.9,1.9-1.8,2.6-2.7
		c0.4,2.5,2.1,5.7,5.8,5.7c4.4,0,6-3.7,6-6.3l0-11.8l-3.7,0L127.8,23.8z M114.7,24.1c-1.9,1.6-3.2,1.7-3.9,1.3
		c-0.6-0.4-0.9-1.5-0.6-2.7c0.6-2.6,3.2-5.5,8.9-6.6C118.7,18.6,117.6,21.7,114.7,24.1z"/>
	<path class="st0" d="M72.8,21.8c-0.6,2.9,0.2,5.5,2.2,6.8c1,0.7,3.9,1.9,8.1-1.6c1-0.8,1.8-1.7,2.5-2.7l0,5.3l3.7,0l0.1-17.8
		c-1,0-2.5,0.1-2.5,0.1C77.9,12.9,73.8,17.7,72.8,21.8z M80.8,24.1c-1.9,1.6-3.2,1.7-3.9,1.3c-0.6-0.4-0.9-1.5-0.6-2.7
		c0.2-0.9,1.6-5.2,8.9-6.6C84.8,18.5,83.6,21.7,80.8,24.1z"/>
	<path class="st0" d="M44.9,23.7c0,0,0,0.7-0.3,1.3c-0.2,0.5-0.7,1.1-2,1.1c-0.9,0-1.4-0.3-1.8-1.2c-0.3-0.7-0.4-1.5-0.4-1.6l0-9.9
		l0-1.7c-1,0-2.5,0.1-2.5,0.1c-8.9,0.9-13.1,5.6-14,9.8c-0.6,2.9,0.2,5.5,2.2,6.8c1,0.7,3.9,1.9,8.1-1.6c1-0.9,1.9-1.8,2.6-2.7
		c0.4,2.5,2.1,5.7,5.8,5.7c4.4,0,6-3.7,6-6.3l0-21.7l-3.7,0L44.9,23.7z M31.9,24c-1.9,1.6-3.2,1.7-3.9,1.3c-0.6-0.4-0.9-1.5-0.6-2.7
		c0.6-2.6,3.2-5.5,8.9-6.6C35.9,18.5,34.7,21.6,31.9,24z"/>
	<path class="st0" d="M21.5,0c0,0.1-1,6.8-2.8,13.4c-3.2,11.9-5.9,12.2-6.2,12.2c-0.3,0-2.9-0.3-6.1-12.2C4.6,6.8,3.6,0.1,3.6,0
		L0,0.6c0,0.3,1,7,2.9,13.9c2.7,10.3,5.8,15,9.6,15c3.8,0,6.9-4.8,9.7-15C24,7.6,25,0.9,25.1,0.6L21.5,0z"/>
	<path class="st0" d="M135.3,20.3c-0.1,2.6,0.4,5.1,0.9,7.2c0.4,1.9,0.9,4.1,0.8,6.2c-0.1,2.5-0.9,4.3-2.3,5.3
		c-1.1,0.7-2.2,0.7-2.2,0.7l0,0l-0.1,3.8c0,0,0,0,0,0c0.3,0,7.7-0.1,8.2-9.6c0.1-2.6-0.4-5.1-0.9-7.2c-0.4-1.9-0.9-4.1-0.8-6.2
		c0.1-2.5,0.9-4.3,2.3-5.3c1.1-0.7,2.2-0.7,2.2-0.7l0,0l0.1-3.8C143.4,10.7,135.8,10.7,135.3,20.3z"/>
</g>
</svg>
