<?xml version="1.0" encoding="utf-8"?>
<!-- Generator: Adobe Illustrator 21.1.0, SVG Export Plug-In . SVG Version: 6.00 Build 0)  -->
<svg version="1.1" id="Capa_1" xmlns="http://www.w3.org/2000/svg" xmlns:xlink="http://www.w3.org/1999/xlink" x="0px" y="0px"
	 viewBox="0 0 19 19" style="enable-background:new 0 0 19 19;" xml:space="preserve">
<style type="text/css">
	.st0{fill:#993399;}
</style>
<g>
	<g>
		<path class="st0" d="M6.1,5.3c0,0,0.2-0.2,0.4-0.2c0.1,0,0.7,0,0.7,0s0.2,0,0.3,0.2C7.6,5.6,8.2,7,8.3,7.1c0,0.1,0.2,0.4,0,0.6
			C8.1,8,7.7,8.4,7.7,8.4s-0.2,0.1,0,0.4c0.1,0.2,0.6,1,1.2,1.5c0.6,0.6,1.4,1,1.8,1.1c0.4,0.1,0.5,0,0.6-0.2
			c0.1-0.2,0.6-0.8,0.6-0.8s0.2-0.2,0.5-0.1c0.3,0.1,1.8,0.9,1.8,0.9s0.2,0,0.2,0.2c0,0.2,0.1,0.8-0.4,1.4c-0.5,0.6-1.7,0.9-2.2,0.7
			c-0.5-0.2-2.4-0.6-3.5-1.7S6,9.6,5.6,8.7C5.2,7.8,5.2,7.3,5.3,7.1C5.3,6.9,5.4,5.8,6.1,5.3z"/>
		<path class="st0" d="M9.6,0.1c-5.1,0-9.2,4.1-9.2,9.2c0,2.5,1.3,4.8,1.3,4.8l-1.6,4.9l5-1.6c0,0,1.9,1.1,4.4,1.1
			c5.1,0,9.2-4.1,9.2-9.2C18.8,4.2,14.7,0.1,9.6,0.1z M9.6,17c-2.4,0-4.2-1.3-4.2-1.3l-2.9,0.9l0.9-2.8c0,0-1.5-2.1-1.5-4.6
			c0-4.2,3.4-7.7,7.7-7.7c4.2,0,7.7,3.4,7.7,7.7C17.3,13.5,13.9,17,9.6,17z"/>
	</g>
</g>
</svg>
