<?xml version="1.0" encoding="utf-8"?>
<!-- Generator: Adobe Illustrator 24.1.0, SVG Export Plug-In . SVG Version: 6.00 Build 0)  -->
<svg version="1.1" id="Capa_1" xmlns="http://www.w3.org/2000/svg" xmlns:xlink="http://www.w3.org/1999/xlink" x="0px" y="0px"
	 viewBox="0 0 1076 1080" style="enable-background:new 0 0 1076 1080;" xml:space="preserve">
<style type="text/css">
	.st0{fill:#993399;}
	.st1{fill:#FFFFFF;}
</style>
<rect class="st0" width="1076" height="1080"/>
<path class="st1" d="M650.96,421.79c-8.57-6.16-32.47-17.56-69.3,9.73c-11.15,8.26-20.74,20.75-28.76,37.39l0.05-34.9l-0.92,0
	l0-0.04L538,433.98l-14.03-0.02l0,0.04l-0.92,0l0.05,34.9c-8.01-16.64-17.61-29.13-28.76-37.39c-36.83-27.29-60.73-15.89-69.3-9.73
	c-15.53,11.18-21.97,32.95-16.4,55.47c7.9,31.95,40.56,68.48,108.44,78.36c1.16,7.81,2.19,16.01,3.06,24.56
	c1.74,17.12,2.69,33.71,3.18,48.25l0.05,38.43l14.63-0.02l14.63,0.02l0.05-38.43c0.49-14.54,1.44-31.13,3.18-48.25
	c0.87-8.55,1.89-16.75,3.06-24.56c67.89-9.87,100.54-46.4,108.44-78.36C672.93,454.74,666.5,432.97,650.96,421.79z M436.7,469.7
	c-2.49-10.08-0.62-19.1,4.78-22.98c1.98-1.42,4.76-2.31,8.31-2.32c6.69-0.01,16.08,3.13,27.78,11.81
	c14.05,10.41,25.5,33.76,33.48,67.57C478.22,516.82,444.15,499.84,436.7,469.7z M639.3,469.7c-7.45,30.14-41.52,47.12-74.35,54.08
	c7.98-33.81,19.43-57.16,33.48-67.57c11.7-8.67,21.09-11.82,27.78-11.81c3.54,0.01,6.33,0.89,8.31,2.32
	C639.92,450.6,641.79,459.62,639.3,469.7z"/>
</svg>
