<?xml version="1.0" encoding="utf-8"?>
<!-- Generator: Adobe Illustrator 24.1.0, SVG Export Plug-In . SVG Version: 6.00 Build 0)  -->
<svg version="1.1" id="Capa_1" xmlns="http://www.w3.org/2000/svg" xmlns:xlink="http://www.w3.org/1999/xlink" x="0px" y="0px"
	 viewBox="0 0 1920 1080" style="enable-background:new 0 0 1920 1080;" xml:space="preserve">
<style type="text/css">
	.st0{fill:#993399;}
	.st1{fill:#FFFFFF;}
</style>
<rect class="st0" width="1920" height="1080"/>
<g>
	<polygon class="st1" points="1406.38,426.67 1386.36,404.79 1341.53,449.51 1361.55,471.4 	"/>
	<path class="st1" d="M875.51,494.79c-8.57-6.16-32.47-17.56-69.3,9.73c-11.15,8.26-20.74,20.75-28.76,37.39l0.05-34.9l-28.98-0.04
		l-0.31,232.85l28.97,0.04l0.05-38.43c0.49-14.54,1.44-31.13,3.18-48.25c0.87-8.55,1.89-16.75,3.06-24.56
		c67.89-9.87,100.54-46.4,108.44-78.36C897.48,527.74,891.04,505.97,875.51,494.79z M863.84,542.7
		c-7.45,30.14-41.52,47.12-74.35,54.08c7.98-33.81,19.43-57.16,33.48-67.57c11.7-8.67,21.09-11.82,27.78-11.81
		c3.54,0.01,6.33,0.89,8.31,2.32C864.46,523.6,866.34,532.62,863.84,542.7z"/>
	<path class="st1" d="M1204.23,457.01c-2.21,0.52-54.59,13.36-88.88,57.09c-3.22,4.1-6.16,8.35-8.86,12.69l0.08-33.33l-28.98-0.08
		l-0.35,138.27l28.98,0.14c0.01-0.59,0.81-59.3,31.55-98.51c27.84-35.51,72.45-46.65,72.87-46.75L1204.23,457.01z"/>
	<path class="st1" d="M1565.34,495.3c-12.71-7.69-29.01-7.31-44.71,1.05c-13.85,7.38-26.44,20.38-35.44,36.6
		c-20.06,36.17-16.29,76.29,8.59,91.34c6.2,3.75,13.05,5.54,20.14,5.55c21.35,0.03,44.95-16.06,60.01-43.21
		C1594,550.47,1590.22,510.35,1565.34,495.3z M1548.86,571.47c-12.16,21.93-31.44,32.15-40.54,26.64
		c-9.11-5.51-10.2-28.05,1.96-49.98c6.14-11.08,14.72-20.12,23.53-24.81c4.09-2.18,7.97-3.28,11.29-3.28c2.18,0,4.12,0.48,5.72,1.45
		C1559.92,527,1561.02,549.54,1548.86,571.47z"/>
	<path class="st1" d="M1345.72,584.65c0,0.05-0.2,5.49-2.61,10.54c-1.97,4.13-5.54,8.86-15.77,8.84c-7.1-0.01-11.47-2.77-14.6-9.21
		c-2.76-5.68-3.28-11.85-3.35-12.83l0.22-78.3l-0.06-13.16c-7.59,0.02-19.58,1.08-19.58,1.08c-70.55,7.23-103.59,44.76-110.99,77.48
		c-5.12,22.67,1.72,43.99,17.43,54.3c8.31,5.46,31.2,15.14,64.19-12.73c8.01-6.76,14.72-14.1,20.34-21.7
		c2.78,20.1,16.3,45.28,46.36,45.33c34.73,0.05,47.38-29.64,47.41-49.61l0.13-93.34l-28.98-0.04L1345.72,584.65z M1242.37,587.13
		c-15.07,12.73-25.66,13.84-30.54,10.64c-4.98-3.27-6.85-12-4.65-21.73c4.62-20.43,25.72-43.78,70.85-52.2
		C1274.12,543.08,1264.73,568.25,1242.37,587.13z"/>
	<path class="st1" d="M910.09,568.69c-5.12,22.67,1.72,43.99,17.43,54.3c8.31,5.46,31.2,15.14,64.19-12.73
		c7.77-6.56,14.32-13.66,19.84-21.02l-0.1,42.31l28.98,0.07l0.42-141.29c-7.91-0.01-19.77,0.87-19.77,0.87
		C950.52,498.44,917.49,535.98,910.09,568.69z M973.49,586.73c-15.07,12.73-25.66,13.84-30.54,10.64c-4.98-3.27-6.85-12-4.65-21.73
		c1.63-7.21,12.39-41.38,70.74-52.19C1005.09,542.76,995.69,567.99,973.49,586.73z"/>
	<path class="st1" d="M688.48,583.67c0,0.05-0.2,5.49-2.61,10.54c-1.97,4.13-5.54,8.86-15.77,8.84c-7.1-0.01-11.47-2.77-14.6-9.21
		c-2.76-5.68-3.28-11.85-3.35-12.83l0.22-78.3l-0.06-13.16c-7.59,0.02-19.58,1.08-19.58,1.08c-70.55,7.23-103.59,44.76-110.99,77.48
		c-5.12,22.67,1.72,43.99,17.43,54.3c8.31,5.46,31.2,15.14,64.19-12.73c8.01-6.76,14.72-14.1,20.34-21.7
		c2.78,20.1,16.3,45.28,46.36,45.33c34.73,0.05,47.38-29.64,47.41-49.61l0.24-172.28l-28.98-0.04L688.48,583.67z M585.12,586.15
		c-15.07,12.73-25.66,13.84-30.54,10.64c-4.98-3.27-6.85-12-4.65-21.73c4.62-20.43,25.72-43.78,70.85-52.2
		C616.88,542.1,607.48,567.27,585.12,586.15z"/>
	<path class="st1" d="M502.75,395.99c-0.08,0.53-7.96,53.75-22.21,106.31c-25.57,94.37-46.6,97.06-48.91,97.06
		c-2.31,0-23.29-2.76-48.58-96.98c-14.11-52.59-21.89-106.07-21.97-106.61l-28.66,4.5c0.32,2.25,8.09,55.65,22.66,110.03
		c21.8,81.36,46.11,119.27,76.51,119.32c30.39,0.05,54.81-37.79,76.84-119.09c14.73-54.34,22.64-107.72,22.97-109.96L502.75,395.99z
		"/>
	<path class="st1" d="M1405.57,557.11c-0.98,20.7,3.33,40.11,7.13,57.23c3.37,15.2,7.19,32.42,6.42,48.9
		c-0.96,20.18-7.11,34.24-18.31,41.77c-8.53,5.74-17.31,5.86-17.4,5.86l0.17,0l-0.53,30.26c0.01,0,0.03,0,0.06,0
		c2.28,0,61.38-0.81,64.96-76.41c0.98-20.7-3.33-40.11-7.13-57.23c-3.37-15.2-7.19-32.42-6.42-48.9
		c0.96-20.18,7.11-34.24,18.31-41.77c8.53-5.74,17.31-5.86,17.4-5.86l-0.17,0l0.53-30.26
		C1470.02,480.71,1409.2,480.39,1405.57,557.11z"/>
</g>
</svg>
